M48
;DRILL file {kicad (2014-jul-16 BZR unknown)-product} date lun 15 sep 2014 11:31:11 CEST
;FORMAT={-:-/ absolute / inch / decimal}
FMAT,2
INCH,TZ
T1C0.032
T2C0.240
%
G90
G05
M72
T1
X3.1Y-2.85
X3.1Y-3.125
X3.1Y-3.4
X3.1Y-3.675
X3.1Y-3.95
X3.1Y-4.225
X3.1Y-4.5
X3.1Y-4.775
X3.1Y-5.2625
X3.2Y-2.85
X3.2Y-3.125
X3.2Y-3.4
X3.2Y-3.675
X3.2Y-3.95
X3.2Y-4.225
X3.2Y-4.5
X3.2Y-4.775
X3.2Y-5.1625
X3.2Y-5.2625
X3.2875Y-5.3625
X3.2875Y-6.2125
X3.3875Y-5.2625
X3.3875Y-5.3625
X3.435Y-2.8
X3.435Y-2.8984
X3.435Y-3.075
X3.435Y-3.1734
X3.435Y-3.35
X3.435Y-3.4484
X3.435Y-3.625
X3.435Y-3.7234
X3.435Y-3.9
X3.435Y-3.9984
X3.435Y-4.175
X3.435Y-4.2734
X3.435Y-4.45
X3.435Y-4.5484
X3.435Y-4.725
X3.435Y-4.8234
X3.5138Y-2.8
X3.5138Y-2.8984
X3.5138Y-3.075
X3.5138Y-3.1734
X3.5138Y-3.35
X3.5138Y-3.4484
X3.5138Y-3.625
X3.5138Y-3.7234
X3.5138Y-3.9
X3.5138Y-3.9984
X3.5138Y-4.175
X3.5138Y-4.2734
X3.5138Y-4.45
X3.5138Y-4.5484
X3.5138Y-4.725
X3.5138Y-4.8234
X3.5625Y-5.2625
X3.5875Y-6.2125
X3.5925Y-2.8
X3.5925Y-2.8984
X3.5925Y-3.075
X3.5925Y-3.1734
X3.5925Y-3.35
X3.5925Y-3.4484
X3.5925Y-3.625
X3.5925Y-3.7234
X3.5925Y-3.9
X3.5925Y-3.9984
X3.5925Y-4.175
X3.5925Y-4.2734
X3.5925Y-4.45
X3.5925Y-4.5484
X3.5925Y-4.725
X3.5925Y-4.8234
X3.6625Y-5.1625
X3.6625Y-5.2625
X3.75Y-2.8
X3.75Y-2.8984
X3.75Y-3.075
X3.75Y-3.1734
X3.75Y-3.35
X3.75Y-3.4484
X3.75Y-3.625
X3.75Y-3.7234
X3.75Y-3.9
X3.75Y-3.9984
X3.75Y-4.175
X3.75Y-4.2734
X3.75Y-4.45
X3.75Y-4.5484
X3.75Y-4.725
X3.75Y-4.8234
X3.75Y-5.3625
X3.85Y-5.2625
X3.85Y-5.3625
X4.025Y-5.2625
X4.125Y-5.1625
X4.125Y-5.2625
X4.2125Y-5.3625
X4.3125Y-5.2625
X4.3125Y-5.3625
X4.4875Y-5.2625
X4.5875Y-5.1625
X4.5875Y-5.2625
X4.65Y-2.85
X4.65Y-3.125
X4.65Y-3.4
X4.65Y-3.675
X4.65Y-3.95
X4.65Y-4.225
X4.65Y-4.5
X4.65Y-4.775
X4.675Y-5.3625
X4.75Y-2.85
X4.75Y-3.125
X4.75Y-3.4
X4.75Y-3.675
X4.75Y-3.95
X4.75Y-4.225
X4.75Y-4.5
X4.75Y-4.775
X4.775Y-5.2625
X4.775Y-5.3625
T2
X3.33Y-5.795
X4.51Y-5.795
T0
M30
