%FSLAX46Y46*%
G04 Gerber Fmt 4.6, Leading zero omitted, Abs format (unit mm)*
G04 Created by KiCad (PCBNEW (2014-jul-16 BZR unknown)-product) date lun 15 sep 2014 11:32:51 CEST*
%MOMM*%
G01*
G04 APERTURE LIST*
%ADD10C,0.150000*%
%ADD11C,0.100000*%
G04 APERTURE END LIST*
D10*
X115417500Y-71642500D02*
X115417500Y-75042500D01*
X113817500Y-71642500D02*
X113817500Y-75042500D01*
X115417500Y-78627500D02*
X115417500Y-82027500D01*
X113817500Y-78627500D02*
X113817500Y-82027500D01*
X115417500Y-85612500D02*
X115417500Y-89012500D01*
X113817500Y-85612500D02*
X113817500Y-89012500D01*
X115417500Y-92597500D02*
X115417500Y-95997500D01*
X113817500Y-92597500D02*
X113817500Y-95997500D01*
X115417500Y-99582500D02*
X115417500Y-102982500D01*
X113817500Y-99582500D02*
X113817500Y-102982500D01*
X115417500Y-106567500D02*
X115417500Y-109967500D01*
X113817500Y-106567500D02*
X113817500Y-109967500D01*
X115417500Y-113552500D02*
X115417500Y-116952500D01*
X113817500Y-113552500D02*
X113817500Y-116952500D01*
X115417500Y-120537500D02*
X115417500Y-123937500D01*
X113817500Y-120537500D02*
X113817500Y-123937500D01*
D11*
X116143690Y-73259167D02*
X115905595Y-73092500D01*
X116143690Y-72973453D02*
X115643690Y-72973453D01*
X115643690Y-73163929D01*
X115667500Y-73211548D01*
X115691310Y-73235357D01*
X115738929Y-73259167D01*
X115810357Y-73259167D01*
X115857976Y-73235357D01*
X115881786Y-73211548D01*
X115905595Y-73163929D01*
X115905595Y-72973453D01*
X115691310Y-73449643D02*
X115667500Y-73473453D01*
X115643690Y-73521072D01*
X115643690Y-73640119D01*
X115667500Y-73687738D01*
X115691310Y-73711548D01*
X115738929Y-73735357D01*
X115786548Y-73735357D01*
X115857976Y-73711548D01*
X116143690Y-73425834D01*
X116143690Y-73735357D01*
X116143690Y-80244167D02*
X115905595Y-80077500D01*
X116143690Y-79958453D02*
X115643690Y-79958453D01*
X115643690Y-80148929D01*
X115667500Y-80196548D01*
X115691310Y-80220357D01*
X115738929Y-80244167D01*
X115810357Y-80244167D01*
X115857976Y-80220357D01*
X115881786Y-80196548D01*
X115905595Y-80148929D01*
X115905595Y-79958453D01*
X115810357Y-80672738D02*
X116143690Y-80672738D01*
X115619881Y-80553691D02*
X115977024Y-80434643D01*
X115977024Y-80744167D01*
X116143690Y-87229167D02*
X115905595Y-87062500D01*
X116143690Y-86943453D02*
X115643690Y-86943453D01*
X115643690Y-87133929D01*
X115667500Y-87181548D01*
X115691310Y-87205357D01*
X115738929Y-87229167D01*
X115810357Y-87229167D01*
X115857976Y-87205357D01*
X115881786Y-87181548D01*
X115905595Y-87133929D01*
X115905595Y-86943453D01*
X115643690Y-87657738D02*
X115643690Y-87562500D01*
X115667500Y-87514881D01*
X115691310Y-87491072D01*
X115762738Y-87443453D01*
X115857976Y-87419643D01*
X116048452Y-87419643D01*
X116096071Y-87443453D01*
X116119881Y-87467262D01*
X116143690Y-87514881D01*
X116143690Y-87610119D01*
X116119881Y-87657738D01*
X116096071Y-87681548D01*
X116048452Y-87705357D01*
X115929405Y-87705357D01*
X115881786Y-87681548D01*
X115857976Y-87657738D01*
X115834167Y-87610119D01*
X115834167Y-87514881D01*
X115857976Y-87467262D01*
X115881786Y-87443453D01*
X115929405Y-87419643D01*
X116143690Y-94214167D02*
X115905595Y-94047500D01*
X116143690Y-93928453D02*
X115643690Y-93928453D01*
X115643690Y-94118929D01*
X115667500Y-94166548D01*
X115691310Y-94190357D01*
X115738929Y-94214167D01*
X115810357Y-94214167D01*
X115857976Y-94190357D01*
X115881786Y-94166548D01*
X115905595Y-94118929D01*
X115905595Y-93928453D01*
X115857976Y-94499881D02*
X115834167Y-94452262D01*
X115810357Y-94428453D01*
X115762738Y-94404643D01*
X115738929Y-94404643D01*
X115691310Y-94428453D01*
X115667500Y-94452262D01*
X115643690Y-94499881D01*
X115643690Y-94595119D01*
X115667500Y-94642738D01*
X115691310Y-94666548D01*
X115738929Y-94690357D01*
X115762738Y-94690357D01*
X115810357Y-94666548D01*
X115834167Y-94642738D01*
X115857976Y-94595119D01*
X115857976Y-94499881D01*
X115881786Y-94452262D01*
X115905595Y-94428453D01*
X115953214Y-94404643D01*
X116048452Y-94404643D01*
X116096071Y-94428453D01*
X116119881Y-94452262D01*
X116143690Y-94499881D01*
X116143690Y-94595119D01*
X116119881Y-94642738D01*
X116096071Y-94666548D01*
X116048452Y-94690357D01*
X115953214Y-94690357D01*
X115905595Y-94666548D01*
X115881786Y-94642738D01*
X115857976Y-94595119D01*
X116143690Y-100961072D02*
X115905595Y-100794405D01*
X116143690Y-100675358D02*
X115643690Y-100675358D01*
X115643690Y-100865834D01*
X115667500Y-100913453D01*
X115691310Y-100937262D01*
X115738929Y-100961072D01*
X115810357Y-100961072D01*
X115857976Y-100937262D01*
X115881786Y-100913453D01*
X115905595Y-100865834D01*
X115905595Y-100675358D01*
X116143690Y-101437262D02*
X116143690Y-101151548D01*
X116143690Y-101294405D02*
X115643690Y-101294405D01*
X115715119Y-101246786D01*
X115762738Y-101199167D01*
X115786548Y-101151548D01*
X115643690Y-101746786D02*
X115643690Y-101794405D01*
X115667500Y-101842024D01*
X115691310Y-101865833D01*
X115738929Y-101889643D01*
X115834167Y-101913452D01*
X115953214Y-101913452D01*
X116048452Y-101889643D01*
X116096071Y-101865833D01*
X116119881Y-101842024D01*
X116143690Y-101794405D01*
X116143690Y-101746786D01*
X116119881Y-101699167D01*
X116096071Y-101675357D01*
X116048452Y-101651548D01*
X115953214Y-101627738D01*
X115834167Y-101627738D01*
X115738929Y-101651548D01*
X115691310Y-101675357D01*
X115667500Y-101699167D01*
X115643690Y-101746786D01*
X116143690Y-107946072D02*
X115905595Y-107779405D01*
X116143690Y-107660358D02*
X115643690Y-107660358D01*
X115643690Y-107850834D01*
X115667500Y-107898453D01*
X115691310Y-107922262D01*
X115738929Y-107946072D01*
X115810357Y-107946072D01*
X115857976Y-107922262D01*
X115881786Y-107898453D01*
X115905595Y-107850834D01*
X115905595Y-107660358D01*
X116143690Y-108422262D02*
X116143690Y-108136548D01*
X116143690Y-108279405D02*
X115643690Y-108279405D01*
X115715119Y-108231786D01*
X115762738Y-108184167D01*
X115786548Y-108136548D01*
X115691310Y-108612738D02*
X115667500Y-108636548D01*
X115643690Y-108684167D01*
X115643690Y-108803214D01*
X115667500Y-108850833D01*
X115691310Y-108874643D01*
X115738929Y-108898452D01*
X115786548Y-108898452D01*
X115857976Y-108874643D01*
X116143690Y-108588929D01*
X116143690Y-108898452D01*
X116143690Y-114931072D02*
X115905595Y-114764405D01*
X116143690Y-114645358D02*
X115643690Y-114645358D01*
X115643690Y-114835834D01*
X115667500Y-114883453D01*
X115691310Y-114907262D01*
X115738929Y-114931072D01*
X115810357Y-114931072D01*
X115857976Y-114907262D01*
X115881786Y-114883453D01*
X115905595Y-114835834D01*
X115905595Y-114645358D01*
X116143690Y-115407262D02*
X116143690Y-115121548D01*
X116143690Y-115264405D02*
X115643690Y-115264405D01*
X115715119Y-115216786D01*
X115762738Y-115169167D01*
X115786548Y-115121548D01*
X115810357Y-115835833D02*
X116143690Y-115835833D01*
X115619881Y-115716786D02*
X115977024Y-115597738D01*
X115977024Y-115907262D01*
X116143690Y-121916072D02*
X115905595Y-121749405D01*
X116143690Y-121630358D02*
X115643690Y-121630358D01*
X115643690Y-121820834D01*
X115667500Y-121868453D01*
X115691310Y-121892262D01*
X115738929Y-121916072D01*
X115810357Y-121916072D01*
X115857976Y-121892262D01*
X115881786Y-121868453D01*
X115905595Y-121820834D01*
X115905595Y-121630358D01*
X116143690Y-122392262D02*
X116143690Y-122106548D01*
X116143690Y-122249405D02*
X115643690Y-122249405D01*
X115715119Y-122201786D01*
X115762738Y-122154167D01*
X115786548Y-122106548D01*
X115643690Y-122820833D02*
X115643690Y-122725595D01*
X115667500Y-122677976D01*
X115691310Y-122654167D01*
X115762738Y-122606548D01*
X115857976Y-122582738D01*
X116048452Y-122582738D01*
X116096071Y-122606548D01*
X116119881Y-122630357D01*
X116143690Y-122677976D01*
X116143690Y-122773214D01*
X116119881Y-122820833D01*
X116096071Y-122844643D01*
X116048452Y-122868452D01*
X115929405Y-122868452D01*
X115881786Y-122844643D01*
X115857976Y-122820833D01*
X115834167Y-122773214D01*
X115834167Y-122677976D01*
X115857976Y-122630357D01*
X115881786Y-122606548D01*
X115929405Y-122582738D01*
M02*
