%FSLAX46Y46*%
G04 Gerber Fmt 4.6, Leading zero omitted, Abs format (unit mm)*
G04 Created by KiCad (PCBNEW (2014-jul-16 BZR unknown)-product) date lun 15 sep 2014 11:32:51 CEST*
%MOMM*%
G01*
G04 APERTURE LIST*
%ADD10C,0.150000*%
%ADD11C,10.160000*%
%ADD12R,1.397000X1.397000*%
%ADD13C,1.397000*%
%ADD14R,1.198880X0.800100*%
%ADD15C,0.635000*%
%ADD16C,0.254000*%
G04 APERTURE END LIST*
D10*
D11*
X114554000Y-147193000D03*
X84582000Y-147193000D03*
D12*
X83502500Y-157797500D03*
D13*
X91122500Y-157797500D03*
D12*
X118110000Y-72390000D03*
D13*
X120650000Y-72390000D03*
D12*
X118110000Y-79375000D03*
D13*
X120650000Y-79375000D03*
D12*
X118110000Y-86360000D03*
D13*
X120650000Y-86360000D03*
D12*
X118110000Y-93345000D03*
D13*
X120650000Y-93345000D03*
D12*
X118110000Y-100330000D03*
D13*
X120650000Y-100330000D03*
D12*
X118110000Y-107315000D03*
D13*
X120650000Y-107315000D03*
D12*
X118110000Y-114300000D03*
D13*
X120650000Y-114300000D03*
D12*
X118110000Y-121285000D03*
D13*
X120650000Y-121285000D03*
D12*
X81280000Y-72390000D03*
D13*
X78740000Y-72390000D03*
D12*
X81280000Y-79375000D03*
D13*
X78740000Y-79375000D03*
D12*
X81280000Y-86360000D03*
D13*
X78740000Y-86360000D03*
D12*
X81280000Y-93345000D03*
D13*
X78740000Y-93345000D03*
D12*
X81280000Y-100330000D03*
D13*
X78740000Y-100330000D03*
D12*
X81280000Y-107315000D03*
D13*
X78740000Y-107315000D03*
D12*
X81280000Y-114300000D03*
D13*
X78740000Y-114300000D03*
D12*
X81280000Y-121285000D03*
D13*
X78740000Y-121285000D03*
D12*
X78740000Y-133667500D03*
D13*
X81280000Y-133667500D03*
X81280000Y-131127500D03*
D12*
X83502500Y-136207500D03*
D13*
X86042500Y-136207500D03*
X86042500Y-133667500D03*
D12*
X90487500Y-133667500D03*
D13*
X93027500Y-133667500D03*
X93027500Y-131127500D03*
D12*
X95250000Y-136207500D03*
D13*
X97790000Y-136207500D03*
X97790000Y-133667500D03*
D12*
X102235000Y-133667500D03*
D13*
X104775000Y-133667500D03*
X104775000Y-131127500D03*
D12*
X106997500Y-136207500D03*
D13*
X109537500Y-136207500D03*
X109537500Y-133667500D03*
D12*
X113982500Y-133667500D03*
D13*
X116522500Y-133667500D03*
X116522500Y-131127500D03*
D12*
X118745000Y-136207500D03*
D13*
X121285000Y-136207500D03*
X121285000Y-133667500D03*
D14*
X114617500Y-72341740D03*
X114617500Y-74343260D03*
X114617500Y-79326740D03*
X114617500Y-81328260D03*
X114617500Y-86311740D03*
X114617500Y-88313260D03*
X114617500Y-93296740D03*
X114617500Y-95298260D03*
X114617500Y-100281740D03*
X114617500Y-102283260D03*
X114617500Y-107266740D03*
X114617500Y-109268260D03*
X114617500Y-114251740D03*
X114617500Y-116253260D03*
X114617500Y-121236740D03*
X114617500Y-123238260D03*
D12*
X95250000Y-71120000D03*
D13*
X91250000Y-71120000D03*
X89250000Y-71120000D03*
X87250000Y-71120000D03*
D12*
X95250000Y-73620000D03*
D13*
X91250000Y-73620000D03*
X89250000Y-73620000D03*
X87250000Y-73620000D03*
D12*
X95250000Y-78105000D03*
D13*
X91250000Y-78105000D03*
X89250000Y-78105000D03*
X87250000Y-78105000D03*
D12*
X95250000Y-80605000D03*
D13*
X91250000Y-80605000D03*
X89250000Y-80605000D03*
X87250000Y-80605000D03*
D12*
X95250000Y-85090000D03*
D13*
X91250000Y-85090000D03*
X89250000Y-85090000D03*
X87250000Y-85090000D03*
D12*
X95250000Y-87590000D03*
D13*
X91250000Y-87590000D03*
X89250000Y-87590000D03*
X87250000Y-87590000D03*
D12*
X95250000Y-92075000D03*
D13*
X91250000Y-92075000D03*
X89250000Y-92075000D03*
X87250000Y-92075000D03*
D12*
X95250000Y-94575000D03*
D13*
X91250000Y-94575000D03*
X89250000Y-94575000D03*
X87250000Y-94575000D03*
D12*
X95250000Y-99060000D03*
D13*
X91250000Y-99060000D03*
X89250000Y-99060000D03*
X87250000Y-99060000D03*
D12*
X95250000Y-101560000D03*
D13*
X91250000Y-101560000D03*
X89250000Y-101560000D03*
X87250000Y-101560000D03*
D12*
X95250000Y-106045000D03*
D13*
X91250000Y-106045000D03*
X89250000Y-106045000D03*
X87250000Y-106045000D03*
D12*
X95250000Y-108545000D03*
D13*
X91250000Y-108545000D03*
X89250000Y-108545000D03*
X87250000Y-108545000D03*
D12*
X95250000Y-113030000D03*
D13*
X91250000Y-113030000D03*
X89250000Y-113030000D03*
X87250000Y-113030000D03*
D12*
X95250000Y-115530000D03*
D13*
X91250000Y-115530000D03*
X89250000Y-115530000D03*
X87250000Y-115530000D03*
D12*
X95250000Y-120015000D03*
D13*
X91250000Y-120015000D03*
X89250000Y-120015000D03*
X87250000Y-120015000D03*
D12*
X95250000Y-122515000D03*
D13*
X91250000Y-122515000D03*
X89250000Y-122515000D03*
X87250000Y-122515000D03*
D15*
X118110000Y-72390000D02*
X114617500Y-72390000D01*
X118110000Y-79375000D02*
X114617500Y-79375000D01*
X118110000Y-86360000D02*
X114617500Y-86360000D01*
X118110000Y-93345000D02*
X114617500Y-93345000D01*
X118110000Y-100330000D02*
X114617500Y-100330000D01*
X118110000Y-107315000D02*
X114617500Y-107315000D01*
X118110000Y-114300000D02*
X114617500Y-114300000D01*
X118110000Y-121285000D02*
X114617500Y-121285000D01*
X114300000Y-74295000D02*
X114617500Y-74295000D01*
X114300000Y-74295000D02*
X105092500Y-83502500D01*
X105092500Y-83502500D02*
X105092500Y-121285000D01*
X105092500Y-121285000D02*
X103505000Y-122872500D01*
X98107500Y-126682500D02*
X88250651Y-126682500D01*
X103505000Y-122872500D02*
X101917500Y-122872500D01*
X88250651Y-126696849D02*
X81280000Y-133667500D01*
X101917500Y-122872500D02*
X98107500Y-126682500D01*
X88250651Y-126682500D02*
X88250651Y-126696849D01*
X89217500Y-127952500D02*
X88582500Y-127952500D01*
X114617500Y-81280000D02*
X114300000Y-81280000D01*
X98425000Y-127952500D02*
X89217500Y-127952500D01*
X102235000Y-124142500D02*
X98425000Y-127952500D01*
X104457500Y-124142500D02*
X102235000Y-124142500D01*
X106362500Y-122237500D02*
X104457500Y-124142500D01*
X106362500Y-89217500D02*
X106362500Y-122237500D01*
X114300000Y-81280000D02*
X106362500Y-89217500D01*
X83820000Y-133985000D02*
X86042500Y-136207500D01*
X83820000Y-132715000D02*
X83820000Y-133985000D01*
X88582500Y-127952500D02*
X83820000Y-132715000D01*
X107632500Y-122872500D02*
X107632500Y-95250000D01*
X105092500Y-125412500D02*
X107632500Y-122872500D01*
X107632500Y-95250000D02*
X114617500Y-88265000D01*
X102870000Y-125412500D02*
X105092500Y-125412500D01*
X99060000Y-129222500D02*
X102870000Y-125412500D01*
X97472500Y-129222500D02*
X99060000Y-129222500D01*
X93027500Y-133667500D02*
X97472500Y-129222500D01*
X114617500Y-95250000D02*
X114300000Y-95250000D01*
X98425000Y-130492500D02*
X95885000Y-133032500D01*
X114300000Y-95250000D02*
X108902500Y-100647500D01*
X108902500Y-100647500D02*
X108902500Y-124142500D01*
X108902500Y-124142500D02*
X106045000Y-127000000D01*
X95885000Y-134302500D02*
X97790000Y-136207500D01*
X106045000Y-127000000D02*
X103505000Y-127000000D01*
X103505000Y-127000000D02*
X100012500Y-130492500D01*
X100012500Y-130492500D02*
X98425000Y-130492500D01*
X95885000Y-133032500D02*
X95885000Y-134302500D01*
X110172500Y-106362500D02*
X114300000Y-102235000D01*
X110172500Y-125730000D02*
X110172500Y-106362500D01*
X114300000Y-102235000D02*
X114617500Y-102235000D01*
X106045001Y-129857499D02*
X110172500Y-125730000D01*
X106045001Y-132397499D02*
X106045001Y-129857499D01*
X104775000Y-133667500D02*
X106045001Y-132397499D01*
X107950000Y-130810000D02*
X107950000Y-134620000D01*
X111442500Y-111760000D02*
X111442500Y-127317500D01*
X107950000Y-134620000D02*
X109537500Y-136207500D01*
X113982500Y-109220000D02*
X111442500Y-111760000D01*
X111442500Y-127317500D02*
X107950000Y-130810000D01*
X114617500Y-109220000D02*
X113982500Y-109220000D01*
X116522500Y-133667500D02*
X112712500Y-129857500D01*
X112712500Y-118110000D02*
X112712500Y-128905000D01*
X112712500Y-118110000D02*
X114617500Y-116205000D01*
X112712500Y-129857500D02*
X112712500Y-128905000D01*
X114617500Y-126428500D02*
X114617500Y-123238260D01*
X119380000Y-131191000D02*
X114617500Y-126428500D01*
X119380000Y-134302500D02*
X119380000Y-131191000D01*
X121285000Y-136207500D02*
X119380000Y-134302500D01*
D16*
G36*
X123750000Y-159310000D02*
X122618731Y-159310000D01*
X122618731Y-135943414D01*
X122416146Y-135453120D01*
X122041353Y-135077673D01*
X121703553Y-134937406D01*
X122039380Y-134798646D01*
X122414827Y-134423853D01*
X122618268Y-133933913D01*
X122618731Y-133403414D01*
X122416146Y-132913120D01*
X122041353Y-132537673D01*
X121551413Y-132334232D01*
X121020914Y-132333769D01*
X120530620Y-132536354D01*
X120332500Y-132734128D01*
X120332500Y-131191000D01*
X120259995Y-130826494D01*
X120053519Y-130517481D01*
X115570000Y-126033962D01*
X115570000Y-124179386D01*
X115576638Y-124176637D01*
X115755267Y-123998009D01*
X115851940Y-123764620D01*
X115851940Y-123512001D01*
X115851940Y-122711901D01*
X115755267Y-122478512D01*
X115576639Y-122299883D01*
X115426033Y-122237500D01*
X116829391Y-122237500D01*
X116873173Y-122343198D01*
X117051801Y-122521827D01*
X117285190Y-122618500D01*
X117537809Y-122618500D01*
X118934809Y-122618500D01*
X119168198Y-122521827D01*
X119346827Y-122343199D01*
X119443500Y-122109810D01*
X119443500Y-121857191D01*
X119443500Y-121857009D01*
X119518854Y-122039380D01*
X119893647Y-122414827D01*
X120383587Y-122618268D01*
X120914086Y-122618731D01*
X121404380Y-122416146D01*
X121779827Y-122041353D01*
X121983268Y-121551413D01*
X121983731Y-121020914D01*
X121781146Y-120530620D01*
X121406353Y-120155173D01*
X120916413Y-119951732D01*
X120385914Y-119951269D01*
X119895620Y-120153854D01*
X119520173Y-120528647D01*
X119443500Y-120713295D01*
X119443500Y-120460191D01*
X119346827Y-120226802D01*
X119168199Y-120048173D01*
X118934810Y-119951500D01*
X118682191Y-119951500D01*
X117285191Y-119951500D01*
X117051802Y-120048173D01*
X116873173Y-120226801D01*
X116829390Y-120332500D01*
X115610775Y-120332500D01*
X115576639Y-120298363D01*
X115343250Y-120201690D01*
X115090631Y-120201690D01*
X113891751Y-120201690D01*
X113665000Y-120295613D01*
X113665000Y-118504538D01*
X114881228Y-117288310D01*
X115343249Y-117288310D01*
X115576638Y-117191637D01*
X115755267Y-117013009D01*
X115851940Y-116779620D01*
X115851940Y-116527001D01*
X115851940Y-115726901D01*
X115755267Y-115493512D01*
X115576639Y-115314883D01*
X115426033Y-115252500D01*
X116829391Y-115252500D01*
X116873173Y-115358198D01*
X117051801Y-115536827D01*
X117285190Y-115633500D01*
X117537809Y-115633500D01*
X118934809Y-115633500D01*
X119168198Y-115536827D01*
X119346827Y-115358199D01*
X119443500Y-115124810D01*
X119443500Y-114872191D01*
X119443500Y-114872009D01*
X119518854Y-115054380D01*
X119893647Y-115429827D01*
X120383587Y-115633268D01*
X120914086Y-115633731D01*
X121404380Y-115431146D01*
X121779827Y-115056353D01*
X121983268Y-114566413D01*
X121983731Y-114035914D01*
X121781146Y-113545620D01*
X121406353Y-113170173D01*
X120916413Y-112966732D01*
X120385914Y-112966269D01*
X119895620Y-113168854D01*
X119520173Y-113543647D01*
X119443500Y-113728295D01*
X119443500Y-113475191D01*
X119346827Y-113241802D01*
X119168199Y-113063173D01*
X118934810Y-112966500D01*
X118682191Y-112966500D01*
X117285191Y-112966500D01*
X117051802Y-113063173D01*
X116873173Y-113241801D01*
X116829390Y-113347500D01*
X115610775Y-113347500D01*
X115576639Y-113313363D01*
X115343250Y-113216690D01*
X115090631Y-113216690D01*
X113891751Y-113216690D01*
X113658362Y-113313363D01*
X113479733Y-113491991D01*
X113383060Y-113725380D01*
X113383060Y-113977999D01*
X113383060Y-114778099D01*
X113479733Y-115011488D01*
X113658361Y-115190117D01*
X113808967Y-115252500D01*
X113658362Y-115314883D01*
X113479733Y-115493511D01*
X113383060Y-115726900D01*
X113383060Y-115979519D01*
X113383060Y-116092402D01*
X112395000Y-117080462D01*
X112395000Y-112154538D01*
X114246228Y-110303310D01*
X115343249Y-110303310D01*
X115576638Y-110206637D01*
X115755267Y-110028009D01*
X115851940Y-109794620D01*
X115851940Y-109542001D01*
X115851940Y-108741901D01*
X115755267Y-108508512D01*
X115576639Y-108329883D01*
X115426033Y-108267500D01*
X116829391Y-108267500D01*
X116873173Y-108373198D01*
X117051801Y-108551827D01*
X117285190Y-108648500D01*
X117537809Y-108648500D01*
X118934809Y-108648500D01*
X119168198Y-108551827D01*
X119346827Y-108373199D01*
X119443500Y-108139810D01*
X119443500Y-107887191D01*
X119443500Y-107887009D01*
X119518854Y-108069380D01*
X119893647Y-108444827D01*
X120383587Y-108648268D01*
X120914086Y-108648731D01*
X121404380Y-108446146D01*
X121779827Y-108071353D01*
X121983268Y-107581413D01*
X121983731Y-107050914D01*
X121781146Y-106560620D01*
X121406353Y-106185173D01*
X120916413Y-105981732D01*
X120385914Y-105981269D01*
X119895620Y-106183854D01*
X119520173Y-106558647D01*
X119443500Y-106743295D01*
X119443500Y-106490191D01*
X119346827Y-106256802D01*
X119168199Y-106078173D01*
X118934810Y-105981500D01*
X118682191Y-105981500D01*
X117285191Y-105981500D01*
X117051802Y-106078173D01*
X116873173Y-106256801D01*
X116829390Y-106362500D01*
X115610775Y-106362500D01*
X115576639Y-106328363D01*
X115343250Y-106231690D01*
X115090631Y-106231690D01*
X113891751Y-106231690D01*
X113658362Y-106328363D01*
X113479733Y-106506991D01*
X113383060Y-106740380D01*
X113383060Y-106992999D01*
X113383060Y-107793099D01*
X113479733Y-108026488D01*
X113658361Y-108205117D01*
X113808967Y-108267500D01*
X113658362Y-108329883D01*
X113655750Y-108332494D01*
X113617994Y-108340005D01*
X113308980Y-108546481D01*
X111125000Y-110730461D01*
X111125000Y-106757038D01*
X114563728Y-103318310D01*
X115343249Y-103318310D01*
X115576638Y-103221637D01*
X115755267Y-103043009D01*
X115851940Y-102809620D01*
X115851940Y-102557001D01*
X115851940Y-101756901D01*
X115755267Y-101523512D01*
X115576639Y-101344883D01*
X115426033Y-101282500D01*
X116829391Y-101282500D01*
X116873173Y-101388198D01*
X117051801Y-101566827D01*
X117285190Y-101663500D01*
X117537809Y-101663500D01*
X118934809Y-101663500D01*
X119168198Y-101566827D01*
X119346827Y-101388199D01*
X119443500Y-101154810D01*
X119443500Y-100902191D01*
X119443500Y-100902009D01*
X119518854Y-101084380D01*
X119893647Y-101459827D01*
X120383587Y-101663268D01*
X120914086Y-101663731D01*
X121404380Y-101461146D01*
X121779827Y-101086353D01*
X121983268Y-100596413D01*
X121983731Y-100065914D01*
X121781146Y-99575620D01*
X121406353Y-99200173D01*
X120916413Y-98996732D01*
X120385914Y-98996269D01*
X119895620Y-99198854D01*
X119520173Y-99573647D01*
X119443500Y-99758295D01*
X119443500Y-99505191D01*
X119346827Y-99271802D01*
X119168199Y-99093173D01*
X118934810Y-98996500D01*
X118682191Y-98996500D01*
X117285191Y-98996500D01*
X117051802Y-99093173D01*
X116873173Y-99271801D01*
X116829390Y-99377500D01*
X115610775Y-99377500D01*
X115576639Y-99343363D01*
X115343250Y-99246690D01*
X115090631Y-99246690D01*
X113891751Y-99246690D01*
X113658362Y-99343363D01*
X113479733Y-99521991D01*
X113383060Y-99755380D01*
X113383060Y-100007999D01*
X113383060Y-100808099D01*
X113479733Y-101041488D01*
X113658361Y-101220117D01*
X113808967Y-101282500D01*
X113658362Y-101344883D01*
X113479733Y-101523511D01*
X113383060Y-101756900D01*
X113383060Y-101804901D01*
X109855000Y-105332961D01*
X109855000Y-101042038D01*
X114563728Y-96333310D01*
X115343249Y-96333310D01*
X115576638Y-96236637D01*
X115755267Y-96058009D01*
X115851940Y-95824620D01*
X115851940Y-95572001D01*
X115851940Y-94771901D01*
X115755267Y-94538512D01*
X115576639Y-94359883D01*
X115426033Y-94297500D01*
X116829391Y-94297500D01*
X116873173Y-94403198D01*
X117051801Y-94581827D01*
X117285190Y-94678500D01*
X117537809Y-94678500D01*
X118934809Y-94678500D01*
X119168198Y-94581827D01*
X119346827Y-94403199D01*
X119443500Y-94169810D01*
X119443500Y-93917191D01*
X119443500Y-93917009D01*
X119518854Y-94099380D01*
X119893647Y-94474827D01*
X120383587Y-94678268D01*
X120914086Y-94678731D01*
X121404380Y-94476146D01*
X121779827Y-94101353D01*
X121983268Y-93611413D01*
X121983731Y-93080914D01*
X121781146Y-92590620D01*
X121406353Y-92215173D01*
X120916413Y-92011732D01*
X120385914Y-92011269D01*
X119895620Y-92213854D01*
X119520173Y-92588647D01*
X119443500Y-92773295D01*
X119443500Y-92520191D01*
X119346827Y-92286802D01*
X119168199Y-92108173D01*
X118934810Y-92011500D01*
X118682191Y-92011500D01*
X117285191Y-92011500D01*
X117051802Y-92108173D01*
X116873173Y-92286801D01*
X116829390Y-92392500D01*
X115610775Y-92392500D01*
X115576639Y-92358363D01*
X115343250Y-92261690D01*
X115090631Y-92261690D01*
X113891751Y-92261690D01*
X113658362Y-92358363D01*
X113479733Y-92536991D01*
X113383060Y-92770380D01*
X113383060Y-93022999D01*
X113383060Y-93823099D01*
X113479733Y-94056488D01*
X113658361Y-94235117D01*
X113808967Y-94297500D01*
X113658362Y-94359883D01*
X113479733Y-94538511D01*
X113383060Y-94771900D01*
X113383060Y-94819902D01*
X108585000Y-99617962D01*
X108585000Y-95644538D01*
X114881228Y-89348310D01*
X115343249Y-89348310D01*
X115576638Y-89251637D01*
X115755267Y-89073009D01*
X115851940Y-88839620D01*
X115851940Y-88587001D01*
X115851940Y-87786901D01*
X115755267Y-87553512D01*
X115576639Y-87374883D01*
X115426033Y-87312500D01*
X116829391Y-87312500D01*
X116873173Y-87418198D01*
X117051801Y-87596827D01*
X117285190Y-87693500D01*
X117537809Y-87693500D01*
X118934809Y-87693500D01*
X119168198Y-87596827D01*
X119346827Y-87418199D01*
X119443500Y-87184810D01*
X119443500Y-86932191D01*
X119443500Y-86932009D01*
X119518854Y-87114380D01*
X119893647Y-87489827D01*
X120383587Y-87693268D01*
X120914086Y-87693731D01*
X121404380Y-87491146D01*
X121779827Y-87116353D01*
X121983268Y-86626413D01*
X121983731Y-86095914D01*
X121781146Y-85605620D01*
X121406353Y-85230173D01*
X120916413Y-85026732D01*
X120385914Y-85026269D01*
X119895620Y-85228854D01*
X119520173Y-85603647D01*
X119443500Y-85788295D01*
X119443500Y-85535191D01*
X119346827Y-85301802D01*
X119168199Y-85123173D01*
X118934810Y-85026500D01*
X118682191Y-85026500D01*
X117285191Y-85026500D01*
X117051802Y-85123173D01*
X116873173Y-85301801D01*
X116829390Y-85407500D01*
X115610775Y-85407500D01*
X115576639Y-85373363D01*
X115343250Y-85276690D01*
X115090631Y-85276690D01*
X113891751Y-85276690D01*
X113658362Y-85373363D01*
X113479733Y-85551991D01*
X113383060Y-85785380D01*
X113383060Y-86037999D01*
X113383060Y-86838099D01*
X113479733Y-87071488D01*
X113658361Y-87250117D01*
X113808967Y-87312500D01*
X113658362Y-87374883D01*
X113479733Y-87553511D01*
X113383060Y-87786900D01*
X113383060Y-88039519D01*
X113383060Y-88152402D01*
X107315000Y-94220462D01*
X107315000Y-89612038D01*
X114563728Y-82363310D01*
X115343249Y-82363310D01*
X115576638Y-82266637D01*
X115755267Y-82088009D01*
X115851940Y-81854620D01*
X115851940Y-81602001D01*
X115851940Y-80801901D01*
X115755267Y-80568512D01*
X115576639Y-80389883D01*
X115426033Y-80327500D01*
X116829391Y-80327500D01*
X116873173Y-80433198D01*
X117051801Y-80611827D01*
X117285190Y-80708500D01*
X117537809Y-80708500D01*
X118934809Y-80708500D01*
X119168198Y-80611827D01*
X119346827Y-80433199D01*
X119443500Y-80199810D01*
X119443500Y-79947191D01*
X119443500Y-79947009D01*
X119518854Y-80129380D01*
X119893647Y-80504827D01*
X120383587Y-80708268D01*
X120914086Y-80708731D01*
X121404380Y-80506146D01*
X121779827Y-80131353D01*
X121983268Y-79641413D01*
X121983731Y-79110914D01*
X121781146Y-78620620D01*
X121406353Y-78245173D01*
X120916413Y-78041732D01*
X120385914Y-78041269D01*
X119895620Y-78243854D01*
X119520173Y-78618647D01*
X119443500Y-78803295D01*
X119443500Y-78550191D01*
X119346827Y-78316802D01*
X119168199Y-78138173D01*
X118934810Y-78041500D01*
X118682191Y-78041500D01*
X117285191Y-78041500D01*
X117051802Y-78138173D01*
X116873173Y-78316801D01*
X116829390Y-78422500D01*
X115610775Y-78422500D01*
X115576639Y-78388363D01*
X115343250Y-78291690D01*
X115090631Y-78291690D01*
X113891751Y-78291690D01*
X113658362Y-78388363D01*
X113479733Y-78566991D01*
X113383060Y-78800380D01*
X113383060Y-79052999D01*
X113383060Y-79853099D01*
X113479733Y-80086488D01*
X113658361Y-80265117D01*
X113808967Y-80327500D01*
X113658362Y-80389883D01*
X113479733Y-80568511D01*
X113383060Y-80801900D01*
X113383060Y-80849902D01*
X106045000Y-88187962D01*
X106045000Y-83897038D01*
X114563728Y-75378310D01*
X115343249Y-75378310D01*
X115576638Y-75281637D01*
X115755267Y-75103009D01*
X115851940Y-74869620D01*
X115851940Y-74617001D01*
X115851940Y-73816901D01*
X115755267Y-73583512D01*
X115576639Y-73404883D01*
X115426033Y-73342500D01*
X116829391Y-73342500D01*
X116873173Y-73448198D01*
X117051801Y-73626827D01*
X117285190Y-73723500D01*
X117537809Y-73723500D01*
X118934809Y-73723500D01*
X119168198Y-73626827D01*
X119346827Y-73448199D01*
X119443500Y-73214810D01*
X119443500Y-72962191D01*
X119443500Y-72962009D01*
X119518854Y-73144380D01*
X119893647Y-73519827D01*
X120383587Y-73723268D01*
X120914086Y-73723731D01*
X121404380Y-73521146D01*
X121779827Y-73146353D01*
X121983268Y-72656413D01*
X121983731Y-72125914D01*
X121781146Y-71635620D01*
X121406353Y-71260173D01*
X120916413Y-71056732D01*
X120385914Y-71056269D01*
X119895620Y-71258854D01*
X119520173Y-71633647D01*
X119443500Y-71818295D01*
X119443500Y-71565191D01*
X119346827Y-71331802D01*
X119168199Y-71153173D01*
X118934810Y-71056500D01*
X118682191Y-71056500D01*
X117285191Y-71056500D01*
X117051802Y-71153173D01*
X116873173Y-71331801D01*
X116829390Y-71437500D01*
X115610775Y-71437500D01*
X115576639Y-71403363D01*
X115343250Y-71306690D01*
X115090631Y-71306690D01*
X113891751Y-71306690D01*
X113658362Y-71403363D01*
X113479733Y-71581991D01*
X113383060Y-71815380D01*
X113383060Y-72067999D01*
X113383060Y-72868099D01*
X113479733Y-73101488D01*
X113658361Y-73280117D01*
X113808967Y-73342500D01*
X113658362Y-73404883D01*
X113479733Y-73583511D01*
X113383060Y-73816900D01*
X113383060Y-73864902D01*
X104418981Y-82828981D01*
X104212505Y-83137994D01*
X104140000Y-83502500D01*
X104140000Y-120890462D01*
X103110461Y-121920000D01*
X101917500Y-121920000D01*
X101552994Y-121992505D01*
X101243981Y-122198981D01*
X97712961Y-125730000D01*
X96583500Y-125730000D01*
X96583500Y-123339810D01*
X96583500Y-123087191D01*
X96583500Y-121690191D01*
X96486827Y-121456802D01*
X96308199Y-121278173D01*
X96276396Y-121264999D01*
X96308198Y-121251827D01*
X96486827Y-121073199D01*
X96583500Y-120839810D01*
X96583500Y-120587191D01*
X96583500Y-119190191D01*
X96583500Y-116354810D01*
X96583500Y-116102191D01*
X96583500Y-114705191D01*
X96486827Y-114471802D01*
X96308199Y-114293173D01*
X96276396Y-114279999D01*
X96308198Y-114266827D01*
X96486827Y-114088199D01*
X96583500Y-113854810D01*
X96583500Y-113602191D01*
X96583500Y-112205191D01*
X96583500Y-109369810D01*
X96583500Y-109117191D01*
X96583500Y-107720191D01*
X96486827Y-107486802D01*
X96308199Y-107308173D01*
X96276396Y-107294999D01*
X96308198Y-107281827D01*
X96486827Y-107103199D01*
X96583500Y-106869810D01*
X96583500Y-106617191D01*
X96583500Y-105220191D01*
X96583500Y-102384810D01*
X96583500Y-102132191D01*
X96583500Y-100735191D01*
X96486827Y-100501802D01*
X96308199Y-100323173D01*
X96276396Y-100309999D01*
X96308198Y-100296827D01*
X96486827Y-100118199D01*
X96583500Y-99884810D01*
X96583500Y-99632191D01*
X96583500Y-98235191D01*
X96583500Y-95399810D01*
X96583500Y-95147191D01*
X96583500Y-93750191D01*
X96486827Y-93516802D01*
X96308199Y-93338173D01*
X96276396Y-93324999D01*
X96308198Y-93311827D01*
X96486827Y-93133199D01*
X96583500Y-92899810D01*
X96583500Y-92647191D01*
X96583500Y-91250191D01*
X96583500Y-88414810D01*
X96583500Y-88162191D01*
X96583500Y-86765191D01*
X96486827Y-86531802D01*
X96308199Y-86353173D01*
X96276396Y-86339999D01*
X96308198Y-86326827D01*
X96486827Y-86148199D01*
X96583500Y-85914810D01*
X96583500Y-85662191D01*
X96583500Y-84265191D01*
X96583500Y-81429810D01*
X96583500Y-81177191D01*
X96583500Y-79780191D01*
X96486827Y-79546802D01*
X96308199Y-79368173D01*
X96276396Y-79354999D01*
X96308198Y-79341827D01*
X96486827Y-79163199D01*
X96583500Y-78929810D01*
X96583500Y-78677191D01*
X96583500Y-77280191D01*
X96583500Y-74444810D01*
X96583500Y-74192191D01*
X96583500Y-72795191D01*
X96486827Y-72561802D01*
X96308199Y-72383173D01*
X96276396Y-72369999D01*
X96308198Y-72356827D01*
X96486827Y-72178199D01*
X96583500Y-71944810D01*
X96583500Y-71692191D01*
X96583500Y-70295191D01*
X96486827Y-70061802D01*
X96308199Y-69883173D01*
X96074810Y-69786500D01*
X95822191Y-69786500D01*
X94425191Y-69786500D01*
X94191802Y-69883173D01*
X94013173Y-70061801D01*
X93916500Y-70295190D01*
X93916500Y-70547809D01*
X93916500Y-71944809D01*
X94013173Y-72178198D01*
X94191801Y-72356827D01*
X94223603Y-72370000D01*
X94191802Y-72383173D01*
X94013173Y-72561801D01*
X93916500Y-72795190D01*
X93916500Y-73047809D01*
X93916500Y-74444809D01*
X94013173Y-74678198D01*
X94191801Y-74856827D01*
X94425190Y-74953500D01*
X94677809Y-74953500D01*
X96074809Y-74953500D01*
X96308198Y-74856827D01*
X96486827Y-74678199D01*
X96583500Y-74444810D01*
X96583500Y-77280191D01*
X96486827Y-77046802D01*
X96308199Y-76868173D01*
X96074810Y-76771500D01*
X95822191Y-76771500D01*
X94425191Y-76771500D01*
X94191802Y-76868173D01*
X94013173Y-77046801D01*
X93916500Y-77280190D01*
X93916500Y-77532809D01*
X93916500Y-78929809D01*
X94013173Y-79163198D01*
X94191801Y-79341827D01*
X94223603Y-79355000D01*
X94191802Y-79368173D01*
X94013173Y-79546801D01*
X93916500Y-79780190D01*
X93916500Y-80032809D01*
X93916500Y-81429809D01*
X94013173Y-81663198D01*
X94191801Y-81841827D01*
X94425190Y-81938500D01*
X94677809Y-81938500D01*
X96074809Y-81938500D01*
X96308198Y-81841827D01*
X96486827Y-81663199D01*
X96583500Y-81429810D01*
X96583500Y-84265191D01*
X96486827Y-84031802D01*
X96308199Y-83853173D01*
X96074810Y-83756500D01*
X95822191Y-83756500D01*
X94425191Y-83756500D01*
X94191802Y-83853173D01*
X94013173Y-84031801D01*
X93916500Y-84265190D01*
X93916500Y-84517809D01*
X93916500Y-85914809D01*
X94013173Y-86148198D01*
X94191801Y-86326827D01*
X94223603Y-86340000D01*
X94191802Y-86353173D01*
X94013173Y-86531801D01*
X93916500Y-86765190D01*
X93916500Y-87017809D01*
X93916500Y-88414809D01*
X94013173Y-88648198D01*
X94191801Y-88826827D01*
X94425190Y-88923500D01*
X94677809Y-88923500D01*
X96074809Y-88923500D01*
X96308198Y-88826827D01*
X96486827Y-88648199D01*
X96583500Y-88414810D01*
X96583500Y-91250191D01*
X96486827Y-91016802D01*
X96308199Y-90838173D01*
X96074810Y-90741500D01*
X95822191Y-90741500D01*
X94425191Y-90741500D01*
X94191802Y-90838173D01*
X94013173Y-91016801D01*
X93916500Y-91250190D01*
X93916500Y-91502809D01*
X93916500Y-92899809D01*
X94013173Y-93133198D01*
X94191801Y-93311827D01*
X94223603Y-93325000D01*
X94191802Y-93338173D01*
X94013173Y-93516801D01*
X93916500Y-93750190D01*
X93916500Y-94002809D01*
X93916500Y-95399809D01*
X94013173Y-95633198D01*
X94191801Y-95811827D01*
X94425190Y-95908500D01*
X94677809Y-95908500D01*
X96074809Y-95908500D01*
X96308198Y-95811827D01*
X96486827Y-95633199D01*
X96583500Y-95399810D01*
X96583500Y-98235191D01*
X96486827Y-98001802D01*
X96308199Y-97823173D01*
X96074810Y-97726500D01*
X95822191Y-97726500D01*
X94425191Y-97726500D01*
X94191802Y-97823173D01*
X94013173Y-98001801D01*
X93916500Y-98235190D01*
X93916500Y-98487809D01*
X93916500Y-99884809D01*
X94013173Y-100118198D01*
X94191801Y-100296827D01*
X94223603Y-100310000D01*
X94191802Y-100323173D01*
X94013173Y-100501801D01*
X93916500Y-100735190D01*
X93916500Y-100987809D01*
X93916500Y-102384809D01*
X94013173Y-102618198D01*
X94191801Y-102796827D01*
X94425190Y-102893500D01*
X94677809Y-102893500D01*
X96074809Y-102893500D01*
X96308198Y-102796827D01*
X96486827Y-102618199D01*
X96583500Y-102384810D01*
X96583500Y-105220191D01*
X96486827Y-104986802D01*
X96308199Y-104808173D01*
X96074810Y-104711500D01*
X95822191Y-104711500D01*
X94425191Y-104711500D01*
X94191802Y-104808173D01*
X94013173Y-104986801D01*
X93916500Y-105220190D01*
X93916500Y-105472809D01*
X93916500Y-106869809D01*
X94013173Y-107103198D01*
X94191801Y-107281827D01*
X94223603Y-107295000D01*
X94191802Y-107308173D01*
X94013173Y-107486801D01*
X93916500Y-107720190D01*
X93916500Y-107972809D01*
X93916500Y-109369809D01*
X94013173Y-109603198D01*
X94191801Y-109781827D01*
X94425190Y-109878500D01*
X94677809Y-109878500D01*
X96074809Y-109878500D01*
X96308198Y-109781827D01*
X96486827Y-109603199D01*
X96583500Y-109369810D01*
X96583500Y-112205191D01*
X96486827Y-111971802D01*
X96308199Y-111793173D01*
X96074810Y-111696500D01*
X95822191Y-111696500D01*
X94425191Y-111696500D01*
X94191802Y-111793173D01*
X94013173Y-111971801D01*
X93916500Y-112205190D01*
X93916500Y-112457809D01*
X93916500Y-113854809D01*
X94013173Y-114088198D01*
X94191801Y-114266827D01*
X94223603Y-114280000D01*
X94191802Y-114293173D01*
X94013173Y-114471801D01*
X93916500Y-114705190D01*
X93916500Y-114957809D01*
X93916500Y-116354809D01*
X94013173Y-116588198D01*
X94191801Y-116766827D01*
X94425190Y-116863500D01*
X94677809Y-116863500D01*
X96074809Y-116863500D01*
X96308198Y-116766827D01*
X96486827Y-116588199D01*
X96583500Y-116354810D01*
X96583500Y-119190191D01*
X96486827Y-118956802D01*
X96308199Y-118778173D01*
X96074810Y-118681500D01*
X95822191Y-118681500D01*
X94425191Y-118681500D01*
X94191802Y-118778173D01*
X94013173Y-118956801D01*
X93916500Y-119190190D01*
X93916500Y-119442809D01*
X93916500Y-120839809D01*
X94013173Y-121073198D01*
X94191801Y-121251827D01*
X94223603Y-121265000D01*
X94191802Y-121278173D01*
X94013173Y-121456801D01*
X93916500Y-121690190D01*
X93916500Y-121942809D01*
X93916500Y-123339809D01*
X94013173Y-123573198D01*
X94191801Y-123751827D01*
X94425190Y-123848500D01*
X94677809Y-123848500D01*
X96074809Y-123848500D01*
X96308198Y-123751827D01*
X96486827Y-123573199D01*
X96583500Y-123339810D01*
X96583500Y-125730000D01*
X92583731Y-125730000D01*
X92583731Y-122250914D01*
X92381146Y-121760620D01*
X92006353Y-121385173D01*
X91716837Y-121264955D01*
X92004380Y-121146146D01*
X92379827Y-120771353D01*
X92583268Y-120281413D01*
X92583731Y-119750914D01*
X92583731Y-115265914D01*
X92381146Y-114775620D01*
X92006353Y-114400173D01*
X91716837Y-114279955D01*
X92004380Y-114161146D01*
X92379827Y-113786353D01*
X92583268Y-113296413D01*
X92583731Y-112765914D01*
X92583731Y-108280914D01*
X92381146Y-107790620D01*
X92006353Y-107415173D01*
X91716837Y-107294955D01*
X92004380Y-107176146D01*
X92379827Y-106801353D01*
X92583268Y-106311413D01*
X92583731Y-105780914D01*
X92583731Y-101295914D01*
X92381146Y-100805620D01*
X92006353Y-100430173D01*
X91716837Y-100309955D01*
X92004380Y-100191146D01*
X92379827Y-99816353D01*
X92583268Y-99326413D01*
X92583731Y-98795914D01*
X92583731Y-94310914D01*
X92381146Y-93820620D01*
X92006353Y-93445173D01*
X91716837Y-93324955D01*
X92004380Y-93206146D01*
X92379827Y-92831353D01*
X92583268Y-92341413D01*
X92583731Y-91810914D01*
X92583731Y-87325914D01*
X92381146Y-86835620D01*
X92006353Y-86460173D01*
X91716837Y-86339955D01*
X92004380Y-86221146D01*
X92379827Y-85846353D01*
X92583268Y-85356413D01*
X92583731Y-84825914D01*
X92583731Y-80340914D01*
X92381146Y-79850620D01*
X92006353Y-79475173D01*
X91716837Y-79354955D01*
X92004380Y-79236146D01*
X92379827Y-78861353D01*
X92583268Y-78371413D01*
X92583731Y-77840914D01*
X92583731Y-73355914D01*
X92381146Y-72865620D01*
X92006353Y-72490173D01*
X91716837Y-72369955D01*
X92004380Y-72251146D01*
X92379827Y-71876353D01*
X92583268Y-71386413D01*
X92583731Y-70855914D01*
X92381146Y-70365620D01*
X92006353Y-69990173D01*
X91516413Y-69786732D01*
X90985914Y-69786269D01*
X90495620Y-69988854D01*
X90249900Y-70234145D01*
X90006353Y-69990173D01*
X89516413Y-69786732D01*
X88985914Y-69786269D01*
X88495620Y-69988854D01*
X88136879Y-70346970D01*
X88136879Y-69739206D01*
X88090815Y-69368538D01*
X87356556Y-69180094D01*
X86606075Y-69286983D01*
X86409185Y-69368538D01*
X86363121Y-69739206D01*
X87250000Y-70626086D01*
X88136879Y-69739206D01*
X88136879Y-70346970D01*
X88120173Y-70363647D01*
X87916732Y-70853587D01*
X87916650Y-70947263D01*
X87743914Y-71120000D01*
X87803134Y-71179220D01*
X87309220Y-71673134D01*
X87250000Y-71613914D01*
X87155131Y-71708782D01*
X86756086Y-71765617D01*
X86756086Y-71120000D01*
X85869206Y-70233121D01*
X85498538Y-70279185D01*
X85310094Y-71013444D01*
X85416983Y-71763925D01*
X85498538Y-71960815D01*
X85869206Y-72006879D01*
X86756086Y-71120000D01*
X86756086Y-71765617D01*
X86606075Y-71786983D01*
X86409185Y-71868538D01*
X86363121Y-72239206D01*
X86493914Y-72370000D01*
X86363121Y-72500794D01*
X86409185Y-72871462D01*
X87143444Y-73059906D01*
X87178786Y-73054872D01*
X87250000Y-73126086D01*
X87309220Y-73066865D01*
X87803134Y-73560779D01*
X87743914Y-73620000D01*
X87916348Y-73792434D01*
X87916269Y-73884086D01*
X88118854Y-74374380D01*
X88493647Y-74749827D01*
X88983587Y-74953268D01*
X89514086Y-74953731D01*
X90004380Y-74751146D01*
X90250099Y-74505854D01*
X90493647Y-74749827D01*
X90983587Y-74953268D01*
X91514086Y-74953731D01*
X92004380Y-74751146D01*
X92379827Y-74376353D01*
X92583268Y-73886413D01*
X92583731Y-73355914D01*
X92583731Y-77840914D01*
X92381146Y-77350620D01*
X92006353Y-76975173D01*
X91516413Y-76771732D01*
X90985914Y-76771269D01*
X90495620Y-76973854D01*
X90249900Y-77219145D01*
X90006353Y-76975173D01*
X89516413Y-76771732D01*
X88985914Y-76771269D01*
X88495620Y-76973854D01*
X88136879Y-77331970D01*
X88136879Y-76724206D01*
X88136879Y-75000794D01*
X87250000Y-74113914D01*
X86756086Y-74607828D01*
X86756086Y-73620000D01*
X85869206Y-72733121D01*
X85498538Y-72779185D01*
X85310094Y-73513444D01*
X85416983Y-74263925D01*
X85498538Y-74460815D01*
X85869206Y-74506879D01*
X86756086Y-73620000D01*
X86756086Y-74607828D01*
X86363121Y-75000794D01*
X86409185Y-75371462D01*
X87143444Y-75559906D01*
X87893925Y-75453017D01*
X88090815Y-75371462D01*
X88136879Y-75000794D01*
X88136879Y-76724206D01*
X88090815Y-76353538D01*
X87356556Y-76165094D01*
X86606075Y-76271983D01*
X86409185Y-76353538D01*
X86363121Y-76724206D01*
X87250000Y-77611086D01*
X88136879Y-76724206D01*
X88136879Y-77331970D01*
X88120173Y-77348647D01*
X87916732Y-77838587D01*
X87916650Y-77932263D01*
X87743914Y-78105000D01*
X87803134Y-78164220D01*
X87309220Y-78658134D01*
X87250000Y-78598914D01*
X87155131Y-78693782D01*
X86756086Y-78750617D01*
X86756086Y-78105000D01*
X85869206Y-77218121D01*
X85498538Y-77264185D01*
X85310094Y-77998444D01*
X85416983Y-78748925D01*
X85498538Y-78945815D01*
X85869206Y-78991879D01*
X86756086Y-78105000D01*
X86756086Y-78750617D01*
X86606075Y-78771983D01*
X86409185Y-78853538D01*
X86363121Y-79224206D01*
X86493914Y-79355000D01*
X86363121Y-79485794D01*
X86409185Y-79856462D01*
X87143444Y-80044906D01*
X87178786Y-80039872D01*
X87250000Y-80111086D01*
X87309220Y-80051865D01*
X87803134Y-80545779D01*
X87743914Y-80605000D01*
X87916348Y-80777434D01*
X87916269Y-80869086D01*
X88118854Y-81359380D01*
X88493647Y-81734827D01*
X88983587Y-81938268D01*
X89514086Y-81938731D01*
X90004380Y-81736146D01*
X90250099Y-81490854D01*
X90493647Y-81734827D01*
X90983587Y-81938268D01*
X91514086Y-81938731D01*
X92004380Y-81736146D01*
X92379827Y-81361353D01*
X92583268Y-80871413D01*
X92583731Y-80340914D01*
X92583731Y-84825914D01*
X92381146Y-84335620D01*
X92006353Y-83960173D01*
X91516413Y-83756732D01*
X90985914Y-83756269D01*
X90495620Y-83958854D01*
X90249900Y-84204145D01*
X90006353Y-83960173D01*
X89516413Y-83756732D01*
X88985914Y-83756269D01*
X88495620Y-83958854D01*
X88136879Y-84316970D01*
X88136879Y-83709206D01*
X88136879Y-81985794D01*
X87250000Y-81098914D01*
X86756086Y-81592828D01*
X86756086Y-80605000D01*
X85869206Y-79718121D01*
X85498538Y-79764185D01*
X85310094Y-80498444D01*
X85416983Y-81248925D01*
X85498538Y-81445815D01*
X85869206Y-81491879D01*
X86756086Y-80605000D01*
X86756086Y-81592828D01*
X86363121Y-81985794D01*
X86409185Y-82356462D01*
X87143444Y-82544906D01*
X87893925Y-82438017D01*
X88090815Y-82356462D01*
X88136879Y-81985794D01*
X88136879Y-83709206D01*
X88090815Y-83338538D01*
X87356556Y-83150094D01*
X86606075Y-83256983D01*
X86409185Y-83338538D01*
X86363121Y-83709206D01*
X87250000Y-84596086D01*
X88136879Y-83709206D01*
X88136879Y-84316970D01*
X88120173Y-84333647D01*
X87916732Y-84823587D01*
X87916650Y-84917263D01*
X87743914Y-85090000D01*
X87803134Y-85149220D01*
X87309220Y-85643134D01*
X87250000Y-85583914D01*
X87155131Y-85678782D01*
X86756086Y-85735617D01*
X86756086Y-85090000D01*
X85869206Y-84203121D01*
X85498538Y-84249185D01*
X85310094Y-84983444D01*
X85416983Y-85733925D01*
X85498538Y-85930815D01*
X85869206Y-85976879D01*
X86756086Y-85090000D01*
X86756086Y-85735617D01*
X86606075Y-85756983D01*
X86409185Y-85838538D01*
X86363121Y-86209206D01*
X86493914Y-86340000D01*
X86363121Y-86470794D01*
X86409185Y-86841462D01*
X87143444Y-87029906D01*
X87178786Y-87024872D01*
X87250000Y-87096086D01*
X87309220Y-87036865D01*
X87803134Y-87530779D01*
X87743914Y-87590000D01*
X87916348Y-87762434D01*
X87916269Y-87854086D01*
X88118854Y-88344380D01*
X88493647Y-88719827D01*
X88983587Y-88923268D01*
X89514086Y-88923731D01*
X90004380Y-88721146D01*
X90250099Y-88475854D01*
X90493647Y-88719827D01*
X90983587Y-88923268D01*
X91514086Y-88923731D01*
X92004380Y-88721146D01*
X92379827Y-88346353D01*
X92583268Y-87856413D01*
X92583731Y-87325914D01*
X92583731Y-91810914D01*
X92381146Y-91320620D01*
X92006353Y-90945173D01*
X91516413Y-90741732D01*
X90985914Y-90741269D01*
X90495620Y-90943854D01*
X90249900Y-91189145D01*
X90006353Y-90945173D01*
X89516413Y-90741732D01*
X88985914Y-90741269D01*
X88495620Y-90943854D01*
X88136879Y-91301970D01*
X88136879Y-90694206D01*
X88136879Y-88970794D01*
X87250000Y-88083914D01*
X86756086Y-88577828D01*
X86756086Y-87590000D01*
X85869206Y-86703121D01*
X85498538Y-86749185D01*
X85310094Y-87483444D01*
X85416983Y-88233925D01*
X85498538Y-88430815D01*
X85869206Y-88476879D01*
X86756086Y-87590000D01*
X86756086Y-88577828D01*
X86363121Y-88970794D01*
X86409185Y-89341462D01*
X87143444Y-89529906D01*
X87893925Y-89423017D01*
X88090815Y-89341462D01*
X88136879Y-88970794D01*
X88136879Y-90694206D01*
X88090815Y-90323538D01*
X87356556Y-90135094D01*
X86606075Y-90241983D01*
X86409185Y-90323538D01*
X86363121Y-90694206D01*
X87250000Y-91581086D01*
X88136879Y-90694206D01*
X88136879Y-91301970D01*
X88120173Y-91318647D01*
X87916732Y-91808587D01*
X87916650Y-91902263D01*
X87743914Y-92075000D01*
X87803134Y-92134220D01*
X87309220Y-92628134D01*
X87250000Y-92568914D01*
X87155131Y-92663782D01*
X86756086Y-92720617D01*
X86756086Y-92075000D01*
X85869206Y-91188121D01*
X85498538Y-91234185D01*
X85310094Y-91968444D01*
X85416983Y-92718925D01*
X85498538Y-92915815D01*
X85869206Y-92961879D01*
X86756086Y-92075000D01*
X86756086Y-92720617D01*
X86606075Y-92741983D01*
X86409185Y-92823538D01*
X86363121Y-93194206D01*
X86493914Y-93325000D01*
X86363121Y-93455794D01*
X86409185Y-93826462D01*
X87143444Y-94014906D01*
X87178786Y-94009872D01*
X87250000Y-94081086D01*
X87309220Y-94021865D01*
X87803134Y-94515779D01*
X87743914Y-94575000D01*
X87916348Y-94747434D01*
X87916269Y-94839086D01*
X88118854Y-95329380D01*
X88493647Y-95704827D01*
X88983587Y-95908268D01*
X89514086Y-95908731D01*
X90004380Y-95706146D01*
X90250099Y-95460854D01*
X90493647Y-95704827D01*
X90983587Y-95908268D01*
X91514086Y-95908731D01*
X92004380Y-95706146D01*
X92379827Y-95331353D01*
X92583268Y-94841413D01*
X92583731Y-94310914D01*
X92583731Y-98795914D01*
X92381146Y-98305620D01*
X92006353Y-97930173D01*
X91516413Y-97726732D01*
X90985914Y-97726269D01*
X90495620Y-97928854D01*
X90249900Y-98174145D01*
X90006353Y-97930173D01*
X89516413Y-97726732D01*
X88985914Y-97726269D01*
X88495620Y-97928854D01*
X88136879Y-98286970D01*
X88136879Y-97679206D01*
X88136879Y-95955794D01*
X87250000Y-95068914D01*
X86756086Y-95562828D01*
X86756086Y-94575000D01*
X85869206Y-93688121D01*
X85498538Y-93734185D01*
X85310094Y-94468444D01*
X85416983Y-95218925D01*
X85498538Y-95415815D01*
X85869206Y-95461879D01*
X86756086Y-94575000D01*
X86756086Y-95562828D01*
X86363121Y-95955794D01*
X86409185Y-96326462D01*
X87143444Y-96514906D01*
X87893925Y-96408017D01*
X88090815Y-96326462D01*
X88136879Y-95955794D01*
X88136879Y-97679206D01*
X88090815Y-97308538D01*
X87356556Y-97120094D01*
X86606075Y-97226983D01*
X86409185Y-97308538D01*
X86363121Y-97679206D01*
X87250000Y-98566086D01*
X88136879Y-97679206D01*
X88136879Y-98286970D01*
X88120173Y-98303647D01*
X87916732Y-98793587D01*
X87916650Y-98887263D01*
X87743914Y-99060000D01*
X87803134Y-99119220D01*
X87309220Y-99613134D01*
X87250000Y-99553914D01*
X87155131Y-99648782D01*
X86756086Y-99705617D01*
X86756086Y-99060000D01*
X85869206Y-98173121D01*
X85498538Y-98219185D01*
X85310094Y-98953444D01*
X85416983Y-99703925D01*
X85498538Y-99900815D01*
X85869206Y-99946879D01*
X86756086Y-99060000D01*
X86756086Y-99705617D01*
X86606075Y-99726983D01*
X86409185Y-99808538D01*
X86363121Y-100179206D01*
X86493914Y-100310000D01*
X86363121Y-100440794D01*
X86409185Y-100811462D01*
X87143444Y-100999906D01*
X87178786Y-100994872D01*
X87250000Y-101066086D01*
X87309220Y-101006865D01*
X87803134Y-101500779D01*
X87743914Y-101560000D01*
X87916348Y-101732434D01*
X87916269Y-101824086D01*
X88118854Y-102314380D01*
X88493647Y-102689827D01*
X88983587Y-102893268D01*
X89514086Y-102893731D01*
X90004380Y-102691146D01*
X90250099Y-102445854D01*
X90493647Y-102689827D01*
X90983587Y-102893268D01*
X91514086Y-102893731D01*
X92004380Y-102691146D01*
X92379827Y-102316353D01*
X92583268Y-101826413D01*
X92583731Y-101295914D01*
X92583731Y-105780914D01*
X92381146Y-105290620D01*
X92006353Y-104915173D01*
X91516413Y-104711732D01*
X90985914Y-104711269D01*
X90495620Y-104913854D01*
X90249900Y-105159145D01*
X90006353Y-104915173D01*
X89516413Y-104711732D01*
X88985914Y-104711269D01*
X88495620Y-104913854D01*
X88136879Y-105271970D01*
X88136879Y-104664206D01*
X88136879Y-102940794D01*
X87250000Y-102053914D01*
X86756086Y-102547828D01*
X86756086Y-101560000D01*
X85869206Y-100673121D01*
X85498538Y-100719185D01*
X85310094Y-101453444D01*
X85416983Y-102203925D01*
X85498538Y-102400815D01*
X85869206Y-102446879D01*
X86756086Y-101560000D01*
X86756086Y-102547828D01*
X86363121Y-102940794D01*
X86409185Y-103311462D01*
X87143444Y-103499906D01*
X87893925Y-103393017D01*
X88090815Y-103311462D01*
X88136879Y-102940794D01*
X88136879Y-104664206D01*
X88090815Y-104293538D01*
X87356556Y-104105094D01*
X86606075Y-104211983D01*
X86409185Y-104293538D01*
X86363121Y-104664206D01*
X87250000Y-105551086D01*
X88136879Y-104664206D01*
X88136879Y-105271970D01*
X88120173Y-105288647D01*
X87916732Y-105778587D01*
X87916650Y-105872263D01*
X87743914Y-106045000D01*
X87803134Y-106104220D01*
X87309220Y-106598134D01*
X87250000Y-106538914D01*
X87155131Y-106633782D01*
X86756086Y-106690617D01*
X86756086Y-106045000D01*
X85869206Y-105158121D01*
X85498538Y-105204185D01*
X85310094Y-105938444D01*
X85416983Y-106688925D01*
X85498538Y-106885815D01*
X85869206Y-106931879D01*
X86756086Y-106045000D01*
X86756086Y-106690617D01*
X86606075Y-106711983D01*
X86409185Y-106793538D01*
X86363121Y-107164206D01*
X86493914Y-107295000D01*
X86363121Y-107425794D01*
X86409185Y-107796462D01*
X87143444Y-107984906D01*
X87178786Y-107979872D01*
X87250000Y-108051086D01*
X87309220Y-107991865D01*
X87803134Y-108485779D01*
X87743914Y-108545000D01*
X87916348Y-108717434D01*
X87916269Y-108809086D01*
X88118854Y-109299380D01*
X88493647Y-109674827D01*
X88983587Y-109878268D01*
X89514086Y-109878731D01*
X90004380Y-109676146D01*
X90250099Y-109430854D01*
X90493647Y-109674827D01*
X90983587Y-109878268D01*
X91514086Y-109878731D01*
X92004380Y-109676146D01*
X92379827Y-109301353D01*
X92583268Y-108811413D01*
X92583731Y-108280914D01*
X92583731Y-112765914D01*
X92381146Y-112275620D01*
X92006353Y-111900173D01*
X91516413Y-111696732D01*
X90985914Y-111696269D01*
X90495620Y-111898854D01*
X90249900Y-112144145D01*
X90006353Y-111900173D01*
X89516413Y-111696732D01*
X88985914Y-111696269D01*
X88495620Y-111898854D01*
X88136879Y-112256970D01*
X88136879Y-111649206D01*
X88136879Y-109925794D01*
X87250000Y-109038914D01*
X86756086Y-109532828D01*
X86756086Y-108545000D01*
X85869206Y-107658121D01*
X85498538Y-107704185D01*
X85310094Y-108438444D01*
X85416983Y-109188925D01*
X85498538Y-109385815D01*
X85869206Y-109431879D01*
X86756086Y-108545000D01*
X86756086Y-109532828D01*
X86363121Y-109925794D01*
X86409185Y-110296462D01*
X87143444Y-110484906D01*
X87893925Y-110378017D01*
X88090815Y-110296462D01*
X88136879Y-109925794D01*
X88136879Y-111649206D01*
X88090815Y-111278538D01*
X87356556Y-111090094D01*
X86606075Y-111196983D01*
X86409185Y-111278538D01*
X86363121Y-111649206D01*
X87250000Y-112536086D01*
X88136879Y-111649206D01*
X88136879Y-112256970D01*
X88120173Y-112273647D01*
X87916732Y-112763587D01*
X87916650Y-112857263D01*
X87743914Y-113030000D01*
X87803134Y-113089220D01*
X87309220Y-113583134D01*
X87250000Y-113523914D01*
X87155131Y-113618782D01*
X86756086Y-113675617D01*
X86756086Y-113030000D01*
X85869206Y-112143121D01*
X85498538Y-112189185D01*
X85310094Y-112923444D01*
X85416983Y-113673925D01*
X85498538Y-113870815D01*
X85869206Y-113916879D01*
X86756086Y-113030000D01*
X86756086Y-113675617D01*
X86606075Y-113696983D01*
X86409185Y-113778538D01*
X86363121Y-114149206D01*
X86493914Y-114280000D01*
X86363121Y-114410794D01*
X86409185Y-114781462D01*
X87143444Y-114969906D01*
X87178786Y-114964872D01*
X87250000Y-115036086D01*
X87309220Y-114976865D01*
X87803134Y-115470779D01*
X87743914Y-115530000D01*
X87916348Y-115702434D01*
X87916269Y-115794086D01*
X88118854Y-116284380D01*
X88493647Y-116659827D01*
X88983587Y-116863268D01*
X89514086Y-116863731D01*
X90004380Y-116661146D01*
X90250099Y-116415854D01*
X90493647Y-116659827D01*
X90983587Y-116863268D01*
X91514086Y-116863731D01*
X92004380Y-116661146D01*
X92379827Y-116286353D01*
X92583268Y-115796413D01*
X92583731Y-115265914D01*
X92583731Y-119750914D01*
X92381146Y-119260620D01*
X92006353Y-118885173D01*
X91516413Y-118681732D01*
X90985914Y-118681269D01*
X90495620Y-118883854D01*
X90249900Y-119129145D01*
X90006353Y-118885173D01*
X89516413Y-118681732D01*
X88985914Y-118681269D01*
X88495620Y-118883854D01*
X88136879Y-119241970D01*
X88136879Y-118634206D01*
X88136879Y-116910794D01*
X87250000Y-116023914D01*
X86756086Y-116517828D01*
X86756086Y-115530000D01*
X85869206Y-114643121D01*
X85498538Y-114689185D01*
X85310094Y-115423444D01*
X85416983Y-116173925D01*
X85498538Y-116370815D01*
X85869206Y-116416879D01*
X86756086Y-115530000D01*
X86756086Y-116517828D01*
X86363121Y-116910794D01*
X86409185Y-117281462D01*
X87143444Y-117469906D01*
X87893925Y-117363017D01*
X88090815Y-117281462D01*
X88136879Y-116910794D01*
X88136879Y-118634206D01*
X88090815Y-118263538D01*
X87356556Y-118075094D01*
X86606075Y-118181983D01*
X86409185Y-118263538D01*
X86363121Y-118634206D01*
X87250000Y-119521086D01*
X88136879Y-118634206D01*
X88136879Y-119241970D01*
X88120173Y-119258647D01*
X87916732Y-119748587D01*
X87916650Y-119842263D01*
X87743914Y-120015000D01*
X87803134Y-120074220D01*
X87309220Y-120568134D01*
X87250000Y-120508914D01*
X87155131Y-120603782D01*
X86756086Y-120660617D01*
X86756086Y-120015000D01*
X85869206Y-119128121D01*
X85498538Y-119174185D01*
X85310094Y-119908444D01*
X85416983Y-120658925D01*
X85498538Y-120855815D01*
X85869206Y-120901879D01*
X86756086Y-120015000D01*
X86756086Y-120660617D01*
X86606075Y-120681983D01*
X86409185Y-120763538D01*
X86363121Y-121134206D01*
X86493914Y-121265000D01*
X86363121Y-121395794D01*
X86409185Y-121766462D01*
X87143444Y-121954906D01*
X87178786Y-121949872D01*
X87250000Y-122021086D01*
X87309220Y-121961865D01*
X87803134Y-122455779D01*
X87743914Y-122515000D01*
X87916348Y-122687434D01*
X87916269Y-122779086D01*
X88118854Y-123269380D01*
X88493647Y-123644827D01*
X88983587Y-123848268D01*
X89514086Y-123848731D01*
X90004380Y-123646146D01*
X90250099Y-123400854D01*
X90493647Y-123644827D01*
X90983587Y-123848268D01*
X91514086Y-123848731D01*
X92004380Y-123646146D01*
X92379827Y-123271353D01*
X92583268Y-122781413D01*
X92583731Y-122250914D01*
X92583731Y-125730000D01*
X88250651Y-125730000D01*
X88136879Y-125752630D01*
X88136879Y-123895794D01*
X87250000Y-123008914D01*
X86756086Y-123502828D01*
X86756086Y-122515000D01*
X85869206Y-121628121D01*
X85498538Y-121674185D01*
X85310094Y-122408444D01*
X85416983Y-123158925D01*
X85498538Y-123355815D01*
X85869206Y-123401879D01*
X86756086Y-122515000D01*
X86756086Y-123502828D01*
X86363121Y-123895794D01*
X86409185Y-124266462D01*
X87143444Y-124454906D01*
X87893925Y-124348017D01*
X88090815Y-124266462D01*
X88136879Y-123895794D01*
X88136879Y-125752630D01*
X87886145Y-125802505D01*
X87577132Y-126008981D01*
X87548237Y-126052224D01*
X82613623Y-130986838D01*
X82613731Y-130863414D01*
X82613500Y-130862854D01*
X82613500Y-122109810D01*
X82613500Y-121857191D01*
X82613500Y-120460191D01*
X82613500Y-115124810D01*
X82613500Y-114872191D01*
X82613500Y-113475191D01*
X82613500Y-108139810D01*
X82613500Y-107887191D01*
X82613500Y-106490191D01*
X82613500Y-101154810D01*
X82613500Y-100902191D01*
X82613500Y-99505191D01*
X82613500Y-94169810D01*
X82613500Y-93917191D01*
X82613500Y-92520191D01*
X82613500Y-87184810D01*
X82613500Y-86932191D01*
X82613500Y-85535191D01*
X82613500Y-80199810D01*
X82613500Y-79947191D01*
X82613500Y-78550191D01*
X82613500Y-73214810D01*
X82613500Y-72962191D01*
X82613500Y-71565191D01*
X82516827Y-71331802D01*
X82338199Y-71153173D01*
X82104810Y-71056500D01*
X81852191Y-71056500D01*
X80455191Y-71056500D01*
X80221802Y-71153173D01*
X80043173Y-71331801D01*
X79946500Y-71565190D01*
X79946500Y-71817809D01*
X79946500Y-71817990D01*
X79871146Y-71635620D01*
X79496353Y-71260173D01*
X79006413Y-71056732D01*
X78475914Y-71056269D01*
X77985620Y-71258854D01*
X77610173Y-71633647D01*
X77406732Y-72123587D01*
X77406269Y-72654086D01*
X77608854Y-73144380D01*
X77983647Y-73519827D01*
X78473587Y-73723268D01*
X79004086Y-73723731D01*
X79494380Y-73521146D01*
X79869827Y-73146353D01*
X79946500Y-72961704D01*
X79946500Y-73214809D01*
X80043173Y-73448198D01*
X80221801Y-73626827D01*
X80455190Y-73723500D01*
X80707809Y-73723500D01*
X82104809Y-73723500D01*
X82338198Y-73626827D01*
X82516827Y-73448199D01*
X82613500Y-73214810D01*
X82613500Y-78550191D01*
X82516827Y-78316802D01*
X82338199Y-78138173D01*
X82104810Y-78041500D01*
X81852191Y-78041500D01*
X80455191Y-78041500D01*
X80221802Y-78138173D01*
X80043173Y-78316801D01*
X79946500Y-78550190D01*
X79946500Y-78802809D01*
X79946500Y-78802990D01*
X79871146Y-78620620D01*
X79496353Y-78245173D01*
X79006413Y-78041732D01*
X78475914Y-78041269D01*
X77985620Y-78243854D01*
X77610173Y-78618647D01*
X77406732Y-79108587D01*
X77406269Y-79639086D01*
X77608854Y-80129380D01*
X77983647Y-80504827D01*
X78473587Y-80708268D01*
X79004086Y-80708731D01*
X79494380Y-80506146D01*
X79869827Y-80131353D01*
X79946500Y-79946704D01*
X79946500Y-80199809D01*
X80043173Y-80433198D01*
X80221801Y-80611827D01*
X80455190Y-80708500D01*
X80707809Y-80708500D01*
X82104809Y-80708500D01*
X82338198Y-80611827D01*
X82516827Y-80433199D01*
X82613500Y-80199810D01*
X82613500Y-85535191D01*
X82516827Y-85301802D01*
X82338199Y-85123173D01*
X82104810Y-85026500D01*
X81852191Y-85026500D01*
X80455191Y-85026500D01*
X80221802Y-85123173D01*
X80043173Y-85301801D01*
X79946500Y-85535190D01*
X79946500Y-85787809D01*
X79946500Y-85787990D01*
X79871146Y-85605620D01*
X79496353Y-85230173D01*
X79006413Y-85026732D01*
X78475914Y-85026269D01*
X77985620Y-85228854D01*
X77610173Y-85603647D01*
X77406732Y-86093587D01*
X77406269Y-86624086D01*
X77608854Y-87114380D01*
X77983647Y-87489827D01*
X78473587Y-87693268D01*
X79004086Y-87693731D01*
X79494380Y-87491146D01*
X79869827Y-87116353D01*
X79946500Y-86931704D01*
X79946500Y-87184809D01*
X80043173Y-87418198D01*
X80221801Y-87596827D01*
X80455190Y-87693500D01*
X80707809Y-87693500D01*
X82104809Y-87693500D01*
X82338198Y-87596827D01*
X82516827Y-87418199D01*
X82613500Y-87184810D01*
X82613500Y-92520191D01*
X82516827Y-92286802D01*
X82338199Y-92108173D01*
X82104810Y-92011500D01*
X81852191Y-92011500D01*
X80455191Y-92011500D01*
X80221802Y-92108173D01*
X80043173Y-92286801D01*
X79946500Y-92520190D01*
X79946500Y-92772809D01*
X79946500Y-92772990D01*
X79871146Y-92590620D01*
X79496353Y-92215173D01*
X79006413Y-92011732D01*
X78475914Y-92011269D01*
X77985620Y-92213854D01*
X77610173Y-92588647D01*
X77406732Y-93078587D01*
X77406269Y-93609086D01*
X77608854Y-94099380D01*
X77983647Y-94474827D01*
X78473587Y-94678268D01*
X79004086Y-94678731D01*
X79494380Y-94476146D01*
X79869827Y-94101353D01*
X79946500Y-93916704D01*
X79946500Y-94169809D01*
X80043173Y-94403198D01*
X80221801Y-94581827D01*
X80455190Y-94678500D01*
X80707809Y-94678500D01*
X82104809Y-94678500D01*
X82338198Y-94581827D01*
X82516827Y-94403199D01*
X82613500Y-94169810D01*
X82613500Y-99505191D01*
X82516827Y-99271802D01*
X82338199Y-99093173D01*
X82104810Y-98996500D01*
X81852191Y-98996500D01*
X80455191Y-98996500D01*
X80221802Y-99093173D01*
X80043173Y-99271801D01*
X79946500Y-99505190D01*
X79946500Y-99757809D01*
X79946500Y-99757990D01*
X79871146Y-99575620D01*
X79496353Y-99200173D01*
X79006413Y-98996732D01*
X78475914Y-98996269D01*
X77985620Y-99198854D01*
X77610173Y-99573647D01*
X77406732Y-100063587D01*
X77406269Y-100594086D01*
X77608854Y-101084380D01*
X77983647Y-101459827D01*
X78473587Y-101663268D01*
X79004086Y-101663731D01*
X79494380Y-101461146D01*
X79869827Y-101086353D01*
X79946500Y-100901704D01*
X79946500Y-101154809D01*
X80043173Y-101388198D01*
X80221801Y-101566827D01*
X80455190Y-101663500D01*
X80707809Y-101663500D01*
X82104809Y-101663500D01*
X82338198Y-101566827D01*
X82516827Y-101388199D01*
X82613500Y-101154810D01*
X82613500Y-106490191D01*
X82516827Y-106256802D01*
X82338199Y-106078173D01*
X82104810Y-105981500D01*
X81852191Y-105981500D01*
X80455191Y-105981500D01*
X80221802Y-106078173D01*
X80043173Y-106256801D01*
X79946500Y-106490190D01*
X79946500Y-106742809D01*
X79946500Y-106742990D01*
X79871146Y-106560620D01*
X79496353Y-106185173D01*
X79006413Y-105981732D01*
X78475914Y-105981269D01*
X77985620Y-106183854D01*
X77610173Y-106558647D01*
X77406732Y-107048587D01*
X77406269Y-107579086D01*
X77608854Y-108069380D01*
X77983647Y-108444827D01*
X78473587Y-108648268D01*
X79004086Y-108648731D01*
X79494380Y-108446146D01*
X79869827Y-108071353D01*
X79946500Y-107886704D01*
X79946500Y-108139809D01*
X80043173Y-108373198D01*
X80221801Y-108551827D01*
X80455190Y-108648500D01*
X80707809Y-108648500D01*
X82104809Y-108648500D01*
X82338198Y-108551827D01*
X82516827Y-108373199D01*
X82613500Y-108139810D01*
X82613500Y-113475191D01*
X82516827Y-113241802D01*
X82338199Y-113063173D01*
X82104810Y-112966500D01*
X81852191Y-112966500D01*
X80455191Y-112966500D01*
X80221802Y-113063173D01*
X80043173Y-113241801D01*
X79946500Y-113475190D01*
X79946500Y-113727809D01*
X79946500Y-113727990D01*
X79871146Y-113545620D01*
X79496353Y-113170173D01*
X79006413Y-112966732D01*
X78475914Y-112966269D01*
X77985620Y-113168854D01*
X77610173Y-113543647D01*
X77406732Y-114033587D01*
X77406269Y-114564086D01*
X77608854Y-115054380D01*
X77983647Y-115429827D01*
X78473587Y-115633268D01*
X79004086Y-115633731D01*
X79494380Y-115431146D01*
X79869827Y-115056353D01*
X79946500Y-114871704D01*
X79946500Y-115124809D01*
X80043173Y-115358198D01*
X80221801Y-115536827D01*
X80455190Y-115633500D01*
X80707809Y-115633500D01*
X82104809Y-115633500D01*
X82338198Y-115536827D01*
X82516827Y-115358199D01*
X82613500Y-115124810D01*
X82613500Y-120460191D01*
X82516827Y-120226802D01*
X82338199Y-120048173D01*
X82104810Y-119951500D01*
X81852191Y-119951500D01*
X80455191Y-119951500D01*
X80221802Y-120048173D01*
X80043173Y-120226801D01*
X79946500Y-120460190D01*
X79946500Y-120712809D01*
X79946500Y-120712990D01*
X79871146Y-120530620D01*
X79496353Y-120155173D01*
X79006413Y-119951732D01*
X78475914Y-119951269D01*
X77985620Y-120153854D01*
X77610173Y-120528647D01*
X77406732Y-121018587D01*
X77406269Y-121549086D01*
X77608854Y-122039380D01*
X77983647Y-122414827D01*
X78473587Y-122618268D01*
X79004086Y-122618731D01*
X79494380Y-122416146D01*
X79869827Y-122041353D01*
X79946500Y-121856704D01*
X79946500Y-122109809D01*
X80043173Y-122343198D01*
X80221801Y-122521827D01*
X80455190Y-122618500D01*
X80707809Y-122618500D01*
X82104809Y-122618500D01*
X82338198Y-122521827D01*
X82516827Y-122343199D01*
X82613500Y-122109810D01*
X82613500Y-130862854D01*
X82411146Y-130373120D01*
X82036353Y-129997673D01*
X81546413Y-129794232D01*
X81015914Y-129793769D01*
X80525620Y-129996354D01*
X80150173Y-130371147D01*
X79946732Y-130861087D01*
X79946269Y-131391586D01*
X80148854Y-131881880D01*
X80523647Y-132257327D01*
X80861446Y-132397593D01*
X80559876Y-132522199D01*
X80461745Y-132285289D01*
X80122210Y-131945755D01*
X79678587Y-131762000D01*
X79391000Y-131762000D01*
X79089250Y-132063750D01*
X79089250Y-133318250D01*
X79173000Y-133318250D01*
X79173000Y-134016750D01*
X79089250Y-134016750D01*
X79089250Y-135271250D01*
X79391000Y-135573000D01*
X79678587Y-135573000D01*
X80122210Y-135389245D01*
X80461745Y-135049711D01*
X80560028Y-134812433D01*
X81013587Y-135000768D01*
X81544086Y-135001231D01*
X81741698Y-134919579D01*
X81597000Y-135268913D01*
X81597000Y-135556500D01*
X81898750Y-135858250D01*
X83153250Y-135858250D01*
X83153250Y-135774500D01*
X83851750Y-135774500D01*
X83851750Y-135858250D01*
X83935500Y-135858250D01*
X83935500Y-136556750D01*
X83851750Y-136556750D01*
X83851750Y-137811250D01*
X84153500Y-138113000D01*
X84441087Y-138113000D01*
X84884710Y-137929245D01*
X85224245Y-137589711D01*
X85322528Y-137352433D01*
X85776087Y-137540768D01*
X86306586Y-137541231D01*
X86796880Y-137338646D01*
X87172327Y-136963853D01*
X87375768Y-136473913D01*
X87376231Y-135943414D01*
X87173646Y-135453120D01*
X86798853Y-135077673D01*
X86461053Y-134937406D01*
X86796880Y-134798646D01*
X87172327Y-134423853D01*
X87375768Y-133933913D01*
X87376231Y-133403414D01*
X87173646Y-132913120D01*
X86798853Y-132537673D01*
X86308913Y-132334232D01*
X85778414Y-132333769D01*
X85386216Y-132495821D01*
X88977038Y-128905000D01*
X89217500Y-128905000D01*
X96442961Y-128905000D01*
X94361123Y-130986838D01*
X94361231Y-130863414D01*
X94158646Y-130373120D01*
X93783853Y-129997673D01*
X93293913Y-129794232D01*
X92763414Y-129793769D01*
X92273120Y-129996354D01*
X91897673Y-130371147D01*
X91694232Y-130861087D01*
X91693769Y-131391586D01*
X91896354Y-131881880D01*
X92271147Y-132257327D01*
X92608946Y-132397593D01*
X92307376Y-132522199D01*
X92209245Y-132285289D01*
X91869710Y-131945755D01*
X91426087Y-131762000D01*
X91138500Y-131762000D01*
X90836750Y-132063750D01*
X90836750Y-133318250D01*
X90920500Y-133318250D01*
X90920500Y-134016750D01*
X90836750Y-134016750D01*
X90836750Y-135271250D01*
X91138500Y-135573000D01*
X91426087Y-135573000D01*
X91869710Y-135389245D01*
X92209245Y-135049711D01*
X92307528Y-134812433D01*
X92761087Y-135000768D01*
X93291586Y-135001231D01*
X93489198Y-134919579D01*
X93344500Y-135268913D01*
X93344500Y-135556500D01*
X93646250Y-135858250D01*
X94900750Y-135858250D01*
X94900750Y-135774500D01*
X95599250Y-135774500D01*
X95599250Y-135858250D01*
X95683000Y-135858250D01*
X95683000Y-136556750D01*
X95599250Y-136556750D01*
X95599250Y-137811250D01*
X95901000Y-138113000D01*
X96188587Y-138113000D01*
X96632210Y-137929245D01*
X96971745Y-137589711D01*
X97070028Y-137352433D01*
X97523587Y-137540768D01*
X98054086Y-137541231D01*
X98544380Y-137338646D01*
X98919827Y-136963853D01*
X99123268Y-136473913D01*
X99123731Y-135943414D01*
X98921146Y-135453120D01*
X98546353Y-135077673D01*
X98208553Y-134937406D01*
X98544380Y-134798646D01*
X98919827Y-134423853D01*
X99123268Y-133933913D01*
X99123731Y-133403414D01*
X98921146Y-132913120D01*
X98546353Y-132537673D01*
X98056413Y-132334232D01*
X97930416Y-132334122D01*
X98819538Y-131445000D01*
X100012500Y-131445000D01*
X100377006Y-131372495D01*
X100686019Y-131166019D01*
X103899538Y-127952500D01*
X106045000Y-127952500D01*
X106409506Y-127879995D01*
X106718519Y-127673519D01*
X109220000Y-125172038D01*
X109220000Y-125335462D01*
X105371482Y-129183980D01*
X105165006Y-129492993D01*
X105100227Y-129818654D01*
X105041413Y-129794232D01*
X104510914Y-129793769D01*
X104020620Y-129996354D01*
X103645173Y-130371147D01*
X103441732Y-130861087D01*
X103441269Y-131391586D01*
X103643854Y-131881880D01*
X104018647Y-132257327D01*
X104356446Y-132397593D01*
X104054876Y-132522199D01*
X103956745Y-132285289D01*
X103617210Y-131945755D01*
X103173587Y-131762000D01*
X102886000Y-131762000D01*
X102584250Y-132063750D01*
X102584250Y-133318250D01*
X102668000Y-133318250D01*
X102668000Y-134016750D01*
X102584250Y-134016750D01*
X102584250Y-135271250D01*
X102886000Y-135573000D01*
X103173587Y-135573000D01*
X103617210Y-135389245D01*
X103956745Y-135049711D01*
X104055028Y-134812433D01*
X104508587Y-135000768D01*
X105039086Y-135001231D01*
X105236698Y-134919579D01*
X105092000Y-135268913D01*
X105092000Y-135556500D01*
X105393750Y-135858250D01*
X106648250Y-135858250D01*
X106648250Y-135774500D01*
X107346750Y-135774500D01*
X107346750Y-135858250D01*
X107430500Y-135858250D01*
X107430500Y-136556750D01*
X107346750Y-136556750D01*
X107346750Y-137811250D01*
X107648500Y-138113000D01*
X107936087Y-138113000D01*
X108379710Y-137929245D01*
X108719245Y-137589711D01*
X108817528Y-137352433D01*
X109271087Y-137540768D01*
X109801586Y-137541231D01*
X110291880Y-137338646D01*
X110667327Y-136963853D01*
X110870768Y-136473913D01*
X110871231Y-135943414D01*
X110668646Y-135453120D01*
X110293853Y-135077673D01*
X109956053Y-134937406D01*
X110291880Y-134798646D01*
X110667327Y-134423853D01*
X110870768Y-133933913D01*
X110871231Y-133403414D01*
X110668646Y-132913120D01*
X110293853Y-132537673D01*
X109803913Y-132334232D01*
X109273414Y-132333769D01*
X108902500Y-132487027D01*
X108902500Y-131204538D01*
X111760000Y-128347038D01*
X111760000Y-128905000D01*
X111760000Y-129857500D01*
X111832505Y-130222006D01*
X112038981Y-130531019D01*
X113269962Y-131762000D01*
X113043913Y-131762000D01*
X112600290Y-131945755D01*
X112260755Y-132285289D01*
X112077000Y-132728913D01*
X112077000Y-133016500D01*
X112378750Y-133318250D01*
X113633250Y-133318250D01*
X113633250Y-133234500D01*
X114331750Y-133234500D01*
X114331750Y-133318250D01*
X114415500Y-133318250D01*
X114415500Y-134016750D01*
X114331750Y-134016750D01*
X114331750Y-135271250D01*
X114633500Y-135573000D01*
X114921087Y-135573000D01*
X115364710Y-135389245D01*
X115704245Y-135049711D01*
X115802528Y-134812433D01*
X116256087Y-135000768D01*
X116786586Y-135001231D01*
X116984198Y-134919579D01*
X116839500Y-135268913D01*
X116839500Y-135556500D01*
X117141250Y-135858250D01*
X118395750Y-135858250D01*
X118395750Y-135774500D01*
X119094250Y-135774500D01*
X119094250Y-135858250D01*
X119178000Y-135858250D01*
X119178000Y-136556750D01*
X119094250Y-136556750D01*
X119094250Y-137811250D01*
X119396000Y-138113000D01*
X119683587Y-138113000D01*
X120127210Y-137929245D01*
X120466745Y-137589711D01*
X120565028Y-137352433D01*
X121018587Y-137540768D01*
X121549086Y-137541231D01*
X122039380Y-137338646D01*
X122414827Y-136963853D01*
X122618268Y-136473913D01*
X122618731Y-135943414D01*
X122618731Y-159310000D01*
X120870519Y-159310000D01*
X120870519Y-148284727D01*
X120807488Y-145784397D01*
X119971917Y-143767148D01*
X119155456Y-143175614D01*
X118571386Y-143759684D01*
X118571386Y-142591544D01*
X118395750Y-142349123D01*
X118395750Y-137811250D01*
X118395750Y-136556750D01*
X117141250Y-136556750D01*
X116839500Y-136858500D01*
X116839500Y-137146087D01*
X117023255Y-137589711D01*
X117362790Y-137929245D01*
X117806413Y-138113000D01*
X118094000Y-138113000D01*
X118395750Y-137811250D01*
X118395750Y-142349123D01*
X117979852Y-141775083D01*
X115645727Y-140876481D01*
X113633250Y-140927213D01*
X113633250Y-135271250D01*
X113633250Y-134016750D01*
X112378750Y-134016750D01*
X112077000Y-134318500D01*
X112077000Y-134606087D01*
X112260755Y-135049711D01*
X112600290Y-135389245D01*
X113043913Y-135573000D01*
X113331500Y-135573000D01*
X113633250Y-135271250D01*
X113633250Y-140927213D01*
X113145397Y-140939512D01*
X111128148Y-141775083D01*
X110536614Y-142591544D01*
X114554000Y-146608930D01*
X118571386Y-142591544D01*
X118571386Y-143759684D01*
X115138070Y-147193000D01*
X119155456Y-151210386D01*
X119971917Y-150618852D01*
X120870519Y-148284727D01*
X120870519Y-159310000D01*
X118571386Y-159310000D01*
X118571386Y-151794456D01*
X114554000Y-147777070D01*
X113969930Y-148361140D01*
X113969930Y-147193000D01*
X109952544Y-143175614D01*
X109136083Y-143767148D01*
X108237481Y-146101273D01*
X108300512Y-148601603D01*
X109136083Y-150618852D01*
X109952544Y-151210386D01*
X113969930Y-147193000D01*
X113969930Y-148361140D01*
X110536614Y-151794456D01*
X111128148Y-152610917D01*
X113462273Y-153509519D01*
X115962603Y-153446488D01*
X117979852Y-152610917D01*
X118571386Y-151794456D01*
X118571386Y-159310000D01*
X106648250Y-159310000D01*
X106648250Y-137811250D01*
X106648250Y-136556750D01*
X105393750Y-136556750D01*
X105092000Y-136858500D01*
X105092000Y-137146087D01*
X105275755Y-137589711D01*
X105615290Y-137929245D01*
X106058913Y-138113000D01*
X106346500Y-138113000D01*
X106648250Y-137811250D01*
X106648250Y-159310000D01*
X103296908Y-159310000D01*
X103296908Y-155144310D01*
X103132138Y-154745537D01*
X102827307Y-154440174D01*
X102428823Y-154274709D01*
X101997350Y-154274332D01*
X101885750Y-154320444D01*
X101885750Y-135271250D01*
X101885750Y-134016750D01*
X101885750Y-133318250D01*
X101885750Y-132063750D01*
X101584000Y-131762000D01*
X101296413Y-131762000D01*
X100852790Y-131945755D01*
X100513255Y-132285289D01*
X100329500Y-132728913D01*
X100329500Y-133016500D01*
X100631250Y-133318250D01*
X101885750Y-133318250D01*
X101885750Y-134016750D01*
X100631250Y-134016750D01*
X100329500Y-134318500D01*
X100329500Y-134606087D01*
X100513255Y-135049711D01*
X100852790Y-135389245D01*
X101296413Y-135573000D01*
X101584000Y-135573000D01*
X101885750Y-135271250D01*
X101885750Y-154320444D01*
X101598577Y-154439102D01*
X101293214Y-154743933D01*
X101127749Y-155142417D01*
X101127372Y-155573890D01*
X101292142Y-155972663D01*
X101596973Y-156278026D01*
X101995457Y-156443491D01*
X102426930Y-156443868D01*
X102825703Y-156279098D01*
X103131066Y-155974267D01*
X103296531Y-155575783D01*
X103296908Y-155144310D01*
X103296908Y-159310000D01*
X98897628Y-159310000D01*
X98897628Y-155144310D01*
X98732858Y-154745537D01*
X98428027Y-154440174D01*
X98029543Y-154274709D01*
X97598070Y-154274332D01*
X97199297Y-154439102D01*
X96893934Y-154743933D01*
X96728469Y-155142417D01*
X96728092Y-155573890D01*
X96892862Y-155972663D01*
X97197693Y-156278026D01*
X97596177Y-156443491D01*
X98027650Y-156443868D01*
X98426423Y-156279098D01*
X98731786Y-155974267D01*
X98897251Y-155575783D01*
X98897628Y-155144310D01*
X98897628Y-159310000D01*
X94900750Y-159310000D01*
X94900750Y-137811250D01*
X94900750Y-136556750D01*
X93646250Y-136556750D01*
X93344500Y-136858500D01*
X93344500Y-137146087D01*
X93528255Y-137589711D01*
X93867790Y-137929245D01*
X94311413Y-138113000D01*
X94599000Y-138113000D01*
X94900750Y-137811250D01*
X94900750Y-159310000D01*
X93062406Y-159310000D01*
X93062406Y-157904056D01*
X92955517Y-157153575D01*
X92873962Y-156956685D01*
X92503294Y-156910621D01*
X92009379Y-157404535D01*
X92009379Y-156416706D01*
X91963315Y-156046038D01*
X91229056Y-155857594D01*
X90478575Y-155964483D01*
X90297989Y-156039284D01*
X90297989Y-146061204D01*
X90138250Y-145674605D01*
X90138250Y-135271250D01*
X90138250Y-134016750D01*
X90138250Y-133318250D01*
X90138250Y-132063750D01*
X89836500Y-131762000D01*
X89548913Y-131762000D01*
X89105290Y-131945755D01*
X88765755Y-132285289D01*
X88582000Y-132728913D01*
X88582000Y-133016500D01*
X88883750Y-133318250D01*
X90138250Y-133318250D01*
X90138250Y-134016750D01*
X88883750Y-134016750D01*
X88582000Y-134318500D01*
X88582000Y-134606087D01*
X88765755Y-135049711D01*
X89105290Y-135389245D01*
X89548913Y-135573000D01*
X89836500Y-135573000D01*
X90138250Y-135271250D01*
X90138250Y-145674605D01*
X89429766Y-143959942D01*
X87823514Y-142350884D01*
X85723771Y-141478995D01*
X83450204Y-141477011D01*
X83153250Y-141599709D01*
X83153250Y-137811250D01*
X83153250Y-136556750D01*
X81898750Y-136556750D01*
X81597000Y-136858500D01*
X81597000Y-137146087D01*
X81780755Y-137589711D01*
X82120290Y-137929245D01*
X82563913Y-138113000D01*
X82851500Y-138113000D01*
X83153250Y-137811250D01*
X83153250Y-141599709D01*
X81348942Y-142345234D01*
X79739884Y-143951486D01*
X78867995Y-146051229D01*
X78866011Y-148324796D01*
X79734234Y-150426058D01*
X81340486Y-152035116D01*
X83440229Y-152907005D01*
X85713796Y-152908989D01*
X87815058Y-152040766D01*
X89424116Y-150434514D01*
X90296005Y-148334771D01*
X90297989Y-146061204D01*
X90297989Y-156039284D01*
X90281685Y-156046038D01*
X90235621Y-156416706D01*
X91122500Y-157303586D01*
X92009379Y-156416706D01*
X92009379Y-157404535D01*
X91616414Y-157797500D01*
X92503294Y-158684379D01*
X92873962Y-158638315D01*
X93062406Y-157904056D01*
X93062406Y-159310000D01*
X91993011Y-159310000D01*
X92009379Y-159178294D01*
X91122500Y-158291414D01*
X90628586Y-158785328D01*
X90628586Y-157797500D01*
X89741706Y-156910621D01*
X89371038Y-156956685D01*
X89182594Y-157690944D01*
X89289483Y-158441425D01*
X89371038Y-158638315D01*
X89741706Y-158684379D01*
X90628586Y-157797500D01*
X90628586Y-158785328D01*
X90235621Y-159178294D01*
X90251988Y-159310000D01*
X84836000Y-159310000D01*
X84836000Y-158622310D01*
X84836000Y-158369691D01*
X84836000Y-156972691D01*
X84739327Y-156739302D01*
X84560699Y-156560673D01*
X84327310Y-156464000D01*
X84074691Y-156464000D01*
X82677691Y-156464000D01*
X82444302Y-156560673D01*
X82265673Y-156739301D01*
X82169000Y-156972690D01*
X82169000Y-157225309D01*
X82169000Y-158622309D01*
X82265673Y-158855698D01*
X82444301Y-159034327D01*
X82677690Y-159131000D01*
X82930309Y-159131000D01*
X84327309Y-159131000D01*
X84560698Y-159034327D01*
X84739327Y-158855699D01*
X84836000Y-158622310D01*
X84836000Y-159310000D01*
X78390750Y-159310000D01*
X78390750Y-135271250D01*
X78390750Y-134016750D01*
X78390750Y-133318250D01*
X78390750Y-132063750D01*
X78089000Y-131762000D01*
X77801413Y-131762000D01*
X77357790Y-131945755D01*
X77018255Y-132285289D01*
X76834500Y-132728913D01*
X76834500Y-133016500D01*
X77136250Y-133318250D01*
X78390750Y-133318250D01*
X78390750Y-134016750D01*
X77136250Y-134016750D01*
X76834500Y-134318500D01*
X76834500Y-134606087D01*
X77018255Y-135049711D01*
X77357790Y-135389245D01*
X77801413Y-135573000D01*
X78089000Y-135573000D01*
X78390750Y-135271250D01*
X78390750Y-159310000D01*
X75640000Y-159310000D01*
X75640000Y-61035000D01*
X123750000Y-61035000D01*
X123750000Y-159310000D01*
X123750000Y-159310000D01*
G37*
X123750000Y-159310000D02*
X122618731Y-159310000D01*
X122618731Y-135943414D01*
X122416146Y-135453120D01*
X122041353Y-135077673D01*
X121703553Y-134937406D01*
X122039380Y-134798646D01*
X122414827Y-134423853D01*
X122618268Y-133933913D01*
X122618731Y-133403414D01*
X122416146Y-132913120D01*
X122041353Y-132537673D01*
X121551413Y-132334232D01*
X121020914Y-132333769D01*
X120530620Y-132536354D01*
X120332500Y-132734128D01*
X120332500Y-131191000D01*
X120259995Y-130826494D01*
X120053519Y-130517481D01*
X115570000Y-126033962D01*
X115570000Y-124179386D01*
X115576638Y-124176637D01*
X115755267Y-123998009D01*
X115851940Y-123764620D01*
X115851940Y-123512001D01*
X115851940Y-122711901D01*
X115755267Y-122478512D01*
X115576639Y-122299883D01*
X115426033Y-122237500D01*
X116829391Y-122237500D01*
X116873173Y-122343198D01*
X117051801Y-122521827D01*
X117285190Y-122618500D01*
X117537809Y-122618500D01*
X118934809Y-122618500D01*
X119168198Y-122521827D01*
X119346827Y-122343199D01*
X119443500Y-122109810D01*
X119443500Y-121857191D01*
X119443500Y-121857009D01*
X119518854Y-122039380D01*
X119893647Y-122414827D01*
X120383587Y-122618268D01*
X120914086Y-122618731D01*
X121404380Y-122416146D01*
X121779827Y-122041353D01*
X121983268Y-121551413D01*
X121983731Y-121020914D01*
X121781146Y-120530620D01*
X121406353Y-120155173D01*
X120916413Y-119951732D01*
X120385914Y-119951269D01*
X119895620Y-120153854D01*
X119520173Y-120528647D01*
X119443500Y-120713295D01*
X119443500Y-120460191D01*
X119346827Y-120226802D01*
X119168199Y-120048173D01*
X118934810Y-119951500D01*
X118682191Y-119951500D01*
X117285191Y-119951500D01*
X117051802Y-120048173D01*
X116873173Y-120226801D01*
X116829390Y-120332500D01*
X115610775Y-120332500D01*
X115576639Y-120298363D01*
X115343250Y-120201690D01*
X115090631Y-120201690D01*
X113891751Y-120201690D01*
X113665000Y-120295613D01*
X113665000Y-118504538D01*
X114881228Y-117288310D01*
X115343249Y-117288310D01*
X115576638Y-117191637D01*
X115755267Y-117013009D01*
X115851940Y-116779620D01*
X115851940Y-116527001D01*
X115851940Y-115726901D01*
X115755267Y-115493512D01*
X115576639Y-115314883D01*
X115426033Y-115252500D01*
X116829391Y-115252500D01*
X116873173Y-115358198D01*
X117051801Y-115536827D01*
X117285190Y-115633500D01*
X117537809Y-115633500D01*
X118934809Y-115633500D01*
X119168198Y-115536827D01*
X119346827Y-115358199D01*
X119443500Y-115124810D01*
X119443500Y-114872191D01*
X119443500Y-114872009D01*
X119518854Y-115054380D01*
X119893647Y-115429827D01*
X120383587Y-115633268D01*
X120914086Y-115633731D01*
X121404380Y-115431146D01*
X121779827Y-115056353D01*
X121983268Y-114566413D01*
X121983731Y-114035914D01*
X121781146Y-113545620D01*
X121406353Y-113170173D01*
X120916413Y-112966732D01*
X120385914Y-112966269D01*
X119895620Y-113168854D01*
X119520173Y-113543647D01*
X119443500Y-113728295D01*
X119443500Y-113475191D01*
X119346827Y-113241802D01*
X119168199Y-113063173D01*
X118934810Y-112966500D01*
X118682191Y-112966500D01*
X117285191Y-112966500D01*
X117051802Y-113063173D01*
X116873173Y-113241801D01*
X116829390Y-113347500D01*
X115610775Y-113347500D01*
X115576639Y-113313363D01*
X115343250Y-113216690D01*
X115090631Y-113216690D01*
X113891751Y-113216690D01*
X113658362Y-113313363D01*
X113479733Y-113491991D01*
X113383060Y-113725380D01*
X113383060Y-113977999D01*
X113383060Y-114778099D01*
X113479733Y-115011488D01*
X113658361Y-115190117D01*
X113808967Y-115252500D01*
X113658362Y-115314883D01*
X113479733Y-115493511D01*
X113383060Y-115726900D01*
X113383060Y-115979519D01*
X113383060Y-116092402D01*
X112395000Y-117080462D01*
X112395000Y-112154538D01*
X114246228Y-110303310D01*
X115343249Y-110303310D01*
X115576638Y-110206637D01*
X115755267Y-110028009D01*
X115851940Y-109794620D01*
X115851940Y-109542001D01*
X115851940Y-108741901D01*
X115755267Y-108508512D01*
X115576639Y-108329883D01*
X115426033Y-108267500D01*
X116829391Y-108267500D01*
X116873173Y-108373198D01*
X117051801Y-108551827D01*
X117285190Y-108648500D01*
X117537809Y-108648500D01*
X118934809Y-108648500D01*
X119168198Y-108551827D01*
X119346827Y-108373199D01*
X119443500Y-108139810D01*
X119443500Y-107887191D01*
X119443500Y-107887009D01*
X119518854Y-108069380D01*
X119893647Y-108444827D01*
X120383587Y-108648268D01*
X120914086Y-108648731D01*
X121404380Y-108446146D01*
X121779827Y-108071353D01*
X121983268Y-107581413D01*
X121983731Y-107050914D01*
X121781146Y-106560620D01*
X121406353Y-106185173D01*
X120916413Y-105981732D01*
X120385914Y-105981269D01*
X119895620Y-106183854D01*
X119520173Y-106558647D01*
X119443500Y-106743295D01*
X119443500Y-106490191D01*
X119346827Y-106256802D01*
X119168199Y-106078173D01*
X118934810Y-105981500D01*
X118682191Y-105981500D01*
X117285191Y-105981500D01*
X117051802Y-106078173D01*
X116873173Y-106256801D01*
X116829390Y-106362500D01*
X115610775Y-106362500D01*
X115576639Y-106328363D01*
X115343250Y-106231690D01*
X115090631Y-106231690D01*
X113891751Y-106231690D01*
X113658362Y-106328363D01*
X113479733Y-106506991D01*
X113383060Y-106740380D01*
X113383060Y-106992999D01*
X113383060Y-107793099D01*
X113479733Y-108026488D01*
X113658361Y-108205117D01*
X113808967Y-108267500D01*
X113658362Y-108329883D01*
X113655750Y-108332494D01*
X113617994Y-108340005D01*
X113308980Y-108546481D01*
X111125000Y-110730461D01*
X111125000Y-106757038D01*
X114563728Y-103318310D01*
X115343249Y-103318310D01*
X115576638Y-103221637D01*
X115755267Y-103043009D01*
X115851940Y-102809620D01*
X115851940Y-102557001D01*
X115851940Y-101756901D01*
X115755267Y-101523512D01*
X115576639Y-101344883D01*
X115426033Y-101282500D01*
X116829391Y-101282500D01*
X116873173Y-101388198D01*
X117051801Y-101566827D01*
X117285190Y-101663500D01*
X117537809Y-101663500D01*
X118934809Y-101663500D01*
X119168198Y-101566827D01*
X119346827Y-101388199D01*
X119443500Y-101154810D01*
X119443500Y-100902191D01*
X119443500Y-100902009D01*
X119518854Y-101084380D01*
X119893647Y-101459827D01*
X120383587Y-101663268D01*
X120914086Y-101663731D01*
X121404380Y-101461146D01*
X121779827Y-101086353D01*
X121983268Y-100596413D01*
X121983731Y-100065914D01*
X121781146Y-99575620D01*
X121406353Y-99200173D01*
X120916413Y-98996732D01*
X120385914Y-98996269D01*
X119895620Y-99198854D01*
X119520173Y-99573647D01*
X119443500Y-99758295D01*
X119443500Y-99505191D01*
X119346827Y-99271802D01*
X119168199Y-99093173D01*
X118934810Y-98996500D01*
X118682191Y-98996500D01*
X117285191Y-98996500D01*
X117051802Y-99093173D01*
X116873173Y-99271801D01*
X116829390Y-99377500D01*
X115610775Y-99377500D01*
X115576639Y-99343363D01*
X115343250Y-99246690D01*
X115090631Y-99246690D01*
X113891751Y-99246690D01*
X113658362Y-99343363D01*
X113479733Y-99521991D01*
X113383060Y-99755380D01*
X113383060Y-100007999D01*
X113383060Y-100808099D01*
X113479733Y-101041488D01*
X113658361Y-101220117D01*
X113808967Y-101282500D01*
X113658362Y-101344883D01*
X113479733Y-101523511D01*
X113383060Y-101756900D01*
X113383060Y-101804901D01*
X109855000Y-105332961D01*
X109855000Y-101042038D01*
X114563728Y-96333310D01*
X115343249Y-96333310D01*
X115576638Y-96236637D01*
X115755267Y-96058009D01*
X115851940Y-95824620D01*
X115851940Y-95572001D01*
X115851940Y-94771901D01*
X115755267Y-94538512D01*
X115576639Y-94359883D01*
X115426033Y-94297500D01*
X116829391Y-94297500D01*
X116873173Y-94403198D01*
X117051801Y-94581827D01*
X117285190Y-94678500D01*
X117537809Y-94678500D01*
X118934809Y-94678500D01*
X119168198Y-94581827D01*
X119346827Y-94403199D01*
X119443500Y-94169810D01*
X119443500Y-93917191D01*
X119443500Y-93917009D01*
X119518854Y-94099380D01*
X119893647Y-94474827D01*
X120383587Y-94678268D01*
X120914086Y-94678731D01*
X121404380Y-94476146D01*
X121779827Y-94101353D01*
X121983268Y-93611413D01*
X121983731Y-93080914D01*
X121781146Y-92590620D01*
X121406353Y-92215173D01*
X120916413Y-92011732D01*
X120385914Y-92011269D01*
X119895620Y-92213854D01*
X119520173Y-92588647D01*
X119443500Y-92773295D01*
X119443500Y-92520191D01*
X119346827Y-92286802D01*
X119168199Y-92108173D01*
X118934810Y-92011500D01*
X118682191Y-92011500D01*
X117285191Y-92011500D01*
X117051802Y-92108173D01*
X116873173Y-92286801D01*
X116829390Y-92392500D01*
X115610775Y-92392500D01*
X115576639Y-92358363D01*
X115343250Y-92261690D01*
X115090631Y-92261690D01*
X113891751Y-92261690D01*
X113658362Y-92358363D01*
X113479733Y-92536991D01*
X113383060Y-92770380D01*
X113383060Y-93022999D01*
X113383060Y-93823099D01*
X113479733Y-94056488D01*
X113658361Y-94235117D01*
X113808967Y-94297500D01*
X113658362Y-94359883D01*
X113479733Y-94538511D01*
X113383060Y-94771900D01*
X113383060Y-94819902D01*
X108585000Y-99617962D01*
X108585000Y-95644538D01*
X114881228Y-89348310D01*
X115343249Y-89348310D01*
X115576638Y-89251637D01*
X115755267Y-89073009D01*
X115851940Y-88839620D01*
X115851940Y-88587001D01*
X115851940Y-87786901D01*
X115755267Y-87553512D01*
X115576639Y-87374883D01*
X115426033Y-87312500D01*
X116829391Y-87312500D01*
X116873173Y-87418198D01*
X117051801Y-87596827D01*
X117285190Y-87693500D01*
X117537809Y-87693500D01*
X118934809Y-87693500D01*
X119168198Y-87596827D01*
X119346827Y-87418199D01*
X119443500Y-87184810D01*
X119443500Y-86932191D01*
X119443500Y-86932009D01*
X119518854Y-87114380D01*
X119893647Y-87489827D01*
X120383587Y-87693268D01*
X120914086Y-87693731D01*
X121404380Y-87491146D01*
X121779827Y-87116353D01*
X121983268Y-86626413D01*
X121983731Y-86095914D01*
X121781146Y-85605620D01*
X121406353Y-85230173D01*
X120916413Y-85026732D01*
X120385914Y-85026269D01*
X119895620Y-85228854D01*
X119520173Y-85603647D01*
X119443500Y-85788295D01*
X119443500Y-85535191D01*
X119346827Y-85301802D01*
X119168199Y-85123173D01*
X118934810Y-85026500D01*
X118682191Y-85026500D01*
X117285191Y-85026500D01*
X117051802Y-85123173D01*
X116873173Y-85301801D01*
X116829390Y-85407500D01*
X115610775Y-85407500D01*
X115576639Y-85373363D01*
X115343250Y-85276690D01*
X115090631Y-85276690D01*
X113891751Y-85276690D01*
X113658362Y-85373363D01*
X113479733Y-85551991D01*
X113383060Y-85785380D01*
X113383060Y-86037999D01*
X113383060Y-86838099D01*
X113479733Y-87071488D01*
X113658361Y-87250117D01*
X113808967Y-87312500D01*
X113658362Y-87374883D01*
X113479733Y-87553511D01*
X113383060Y-87786900D01*
X113383060Y-88039519D01*
X113383060Y-88152402D01*
X107315000Y-94220462D01*
X107315000Y-89612038D01*
X114563728Y-82363310D01*
X115343249Y-82363310D01*
X115576638Y-82266637D01*
X115755267Y-82088009D01*
X115851940Y-81854620D01*
X115851940Y-81602001D01*
X115851940Y-80801901D01*
X115755267Y-80568512D01*
X115576639Y-80389883D01*
X115426033Y-80327500D01*
X116829391Y-80327500D01*
X116873173Y-80433198D01*
X117051801Y-80611827D01*
X117285190Y-80708500D01*
X117537809Y-80708500D01*
X118934809Y-80708500D01*
X119168198Y-80611827D01*
X119346827Y-80433199D01*
X119443500Y-80199810D01*
X119443500Y-79947191D01*
X119443500Y-79947009D01*
X119518854Y-80129380D01*
X119893647Y-80504827D01*
X120383587Y-80708268D01*
X120914086Y-80708731D01*
X121404380Y-80506146D01*
X121779827Y-80131353D01*
X121983268Y-79641413D01*
X121983731Y-79110914D01*
X121781146Y-78620620D01*
X121406353Y-78245173D01*
X120916413Y-78041732D01*
X120385914Y-78041269D01*
X119895620Y-78243854D01*
X119520173Y-78618647D01*
X119443500Y-78803295D01*
X119443500Y-78550191D01*
X119346827Y-78316802D01*
X119168199Y-78138173D01*
X118934810Y-78041500D01*
X118682191Y-78041500D01*
X117285191Y-78041500D01*
X117051802Y-78138173D01*
X116873173Y-78316801D01*
X116829390Y-78422500D01*
X115610775Y-78422500D01*
X115576639Y-78388363D01*
X115343250Y-78291690D01*
X115090631Y-78291690D01*
X113891751Y-78291690D01*
X113658362Y-78388363D01*
X113479733Y-78566991D01*
X113383060Y-78800380D01*
X113383060Y-79052999D01*
X113383060Y-79853099D01*
X113479733Y-80086488D01*
X113658361Y-80265117D01*
X113808967Y-80327500D01*
X113658362Y-80389883D01*
X113479733Y-80568511D01*
X113383060Y-80801900D01*
X113383060Y-80849902D01*
X106045000Y-88187962D01*
X106045000Y-83897038D01*
X114563728Y-75378310D01*
X115343249Y-75378310D01*
X115576638Y-75281637D01*
X115755267Y-75103009D01*
X115851940Y-74869620D01*
X115851940Y-74617001D01*
X115851940Y-73816901D01*
X115755267Y-73583512D01*
X115576639Y-73404883D01*
X115426033Y-73342500D01*
X116829391Y-73342500D01*
X116873173Y-73448198D01*
X117051801Y-73626827D01*
X117285190Y-73723500D01*
X117537809Y-73723500D01*
X118934809Y-73723500D01*
X119168198Y-73626827D01*
X119346827Y-73448199D01*
X119443500Y-73214810D01*
X119443500Y-72962191D01*
X119443500Y-72962009D01*
X119518854Y-73144380D01*
X119893647Y-73519827D01*
X120383587Y-73723268D01*
X120914086Y-73723731D01*
X121404380Y-73521146D01*
X121779827Y-73146353D01*
X121983268Y-72656413D01*
X121983731Y-72125914D01*
X121781146Y-71635620D01*
X121406353Y-71260173D01*
X120916413Y-71056732D01*
X120385914Y-71056269D01*
X119895620Y-71258854D01*
X119520173Y-71633647D01*
X119443500Y-71818295D01*
X119443500Y-71565191D01*
X119346827Y-71331802D01*
X119168199Y-71153173D01*
X118934810Y-71056500D01*
X118682191Y-71056500D01*
X117285191Y-71056500D01*
X117051802Y-71153173D01*
X116873173Y-71331801D01*
X116829390Y-71437500D01*
X115610775Y-71437500D01*
X115576639Y-71403363D01*
X115343250Y-71306690D01*
X115090631Y-71306690D01*
X113891751Y-71306690D01*
X113658362Y-71403363D01*
X113479733Y-71581991D01*
X113383060Y-71815380D01*
X113383060Y-72067999D01*
X113383060Y-72868099D01*
X113479733Y-73101488D01*
X113658361Y-73280117D01*
X113808967Y-73342500D01*
X113658362Y-73404883D01*
X113479733Y-73583511D01*
X113383060Y-73816900D01*
X113383060Y-73864902D01*
X104418981Y-82828981D01*
X104212505Y-83137994D01*
X104140000Y-83502500D01*
X104140000Y-120890462D01*
X103110461Y-121920000D01*
X101917500Y-121920000D01*
X101552994Y-121992505D01*
X101243981Y-122198981D01*
X97712961Y-125730000D01*
X96583500Y-125730000D01*
X96583500Y-123339810D01*
X96583500Y-123087191D01*
X96583500Y-121690191D01*
X96486827Y-121456802D01*
X96308199Y-121278173D01*
X96276396Y-121264999D01*
X96308198Y-121251827D01*
X96486827Y-121073199D01*
X96583500Y-120839810D01*
X96583500Y-120587191D01*
X96583500Y-119190191D01*
X96583500Y-116354810D01*
X96583500Y-116102191D01*
X96583500Y-114705191D01*
X96486827Y-114471802D01*
X96308199Y-114293173D01*
X96276396Y-114279999D01*
X96308198Y-114266827D01*
X96486827Y-114088199D01*
X96583500Y-113854810D01*
X96583500Y-113602191D01*
X96583500Y-112205191D01*
X96583500Y-109369810D01*
X96583500Y-109117191D01*
X96583500Y-107720191D01*
X96486827Y-107486802D01*
X96308199Y-107308173D01*
X96276396Y-107294999D01*
X96308198Y-107281827D01*
X96486827Y-107103199D01*
X96583500Y-106869810D01*
X96583500Y-106617191D01*
X96583500Y-105220191D01*
X96583500Y-102384810D01*
X96583500Y-102132191D01*
X96583500Y-100735191D01*
X96486827Y-100501802D01*
X96308199Y-100323173D01*
X96276396Y-100309999D01*
X96308198Y-100296827D01*
X96486827Y-100118199D01*
X96583500Y-99884810D01*
X96583500Y-99632191D01*
X96583500Y-98235191D01*
X96583500Y-95399810D01*
X96583500Y-95147191D01*
X96583500Y-93750191D01*
X96486827Y-93516802D01*
X96308199Y-93338173D01*
X96276396Y-93324999D01*
X96308198Y-93311827D01*
X96486827Y-93133199D01*
X96583500Y-92899810D01*
X96583500Y-92647191D01*
X96583500Y-91250191D01*
X96583500Y-88414810D01*
X96583500Y-88162191D01*
X96583500Y-86765191D01*
X96486827Y-86531802D01*
X96308199Y-86353173D01*
X96276396Y-86339999D01*
X96308198Y-86326827D01*
X96486827Y-86148199D01*
X96583500Y-85914810D01*
X96583500Y-85662191D01*
X96583500Y-84265191D01*
X96583500Y-81429810D01*
X96583500Y-81177191D01*
X96583500Y-79780191D01*
X96486827Y-79546802D01*
X96308199Y-79368173D01*
X96276396Y-79354999D01*
X96308198Y-79341827D01*
X96486827Y-79163199D01*
X96583500Y-78929810D01*
X96583500Y-78677191D01*
X96583500Y-77280191D01*
X96583500Y-74444810D01*
X96583500Y-74192191D01*
X96583500Y-72795191D01*
X96486827Y-72561802D01*
X96308199Y-72383173D01*
X96276396Y-72369999D01*
X96308198Y-72356827D01*
X96486827Y-72178199D01*
X96583500Y-71944810D01*
X96583500Y-71692191D01*
X96583500Y-70295191D01*
X96486827Y-70061802D01*
X96308199Y-69883173D01*
X96074810Y-69786500D01*
X95822191Y-69786500D01*
X94425191Y-69786500D01*
X94191802Y-69883173D01*
X94013173Y-70061801D01*
X93916500Y-70295190D01*
X93916500Y-70547809D01*
X93916500Y-71944809D01*
X94013173Y-72178198D01*
X94191801Y-72356827D01*
X94223603Y-72370000D01*
X94191802Y-72383173D01*
X94013173Y-72561801D01*
X93916500Y-72795190D01*
X93916500Y-73047809D01*
X93916500Y-74444809D01*
X94013173Y-74678198D01*
X94191801Y-74856827D01*
X94425190Y-74953500D01*
X94677809Y-74953500D01*
X96074809Y-74953500D01*
X96308198Y-74856827D01*
X96486827Y-74678199D01*
X96583500Y-74444810D01*
X96583500Y-77280191D01*
X96486827Y-77046802D01*
X96308199Y-76868173D01*
X96074810Y-76771500D01*
X95822191Y-76771500D01*
X94425191Y-76771500D01*
X94191802Y-76868173D01*
X94013173Y-77046801D01*
X93916500Y-77280190D01*
X93916500Y-77532809D01*
X93916500Y-78929809D01*
X94013173Y-79163198D01*
X94191801Y-79341827D01*
X94223603Y-79355000D01*
X94191802Y-79368173D01*
X94013173Y-79546801D01*
X93916500Y-79780190D01*
X93916500Y-80032809D01*
X93916500Y-81429809D01*
X94013173Y-81663198D01*
X94191801Y-81841827D01*
X94425190Y-81938500D01*
X94677809Y-81938500D01*
X96074809Y-81938500D01*
X96308198Y-81841827D01*
X96486827Y-81663199D01*
X96583500Y-81429810D01*
X96583500Y-84265191D01*
X96486827Y-84031802D01*
X96308199Y-83853173D01*
X96074810Y-83756500D01*
X95822191Y-83756500D01*
X94425191Y-83756500D01*
X94191802Y-83853173D01*
X94013173Y-84031801D01*
X93916500Y-84265190D01*
X93916500Y-84517809D01*
X93916500Y-85914809D01*
X94013173Y-86148198D01*
X94191801Y-86326827D01*
X94223603Y-86340000D01*
X94191802Y-86353173D01*
X94013173Y-86531801D01*
X93916500Y-86765190D01*
X93916500Y-87017809D01*
X93916500Y-88414809D01*
X94013173Y-88648198D01*
X94191801Y-88826827D01*
X94425190Y-88923500D01*
X94677809Y-88923500D01*
X96074809Y-88923500D01*
X96308198Y-88826827D01*
X96486827Y-88648199D01*
X96583500Y-88414810D01*
X96583500Y-91250191D01*
X96486827Y-91016802D01*
X96308199Y-90838173D01*
X96074810Y-90741500D01*
X95822191Y-90741500D01*
X94425191Y-90741500D01*
X94191802Y-90838173D01*
X94013173Y-91016801D01*
X93916500Y-91250190D01*
X93916500Y-91502809D01*
X93916500Y-92899809D01*
X94013173Y-93133198D01*
X94191801Y-93311827D01*
X94223603Y-93325000D01*
X94191802Y-93338173D01*
X94013173Y-93516801D01*
X93916500Y-93750190D01*
X93916500Y-94002809D01*
X93916500Y-95399809D01*
X94013173Y-95633198D01*
X94191801Y-95811827D01*
X94425190Y-95908500D01*
X94677809Y-95908500D01*
X96074809Y-95908500D01*
X96308198Y-95811827D01*
X96486827Y-95633199D01*
X96583500Y-95399810D01*
X96583500Y-98235191D01*
X96486827Y-98001802D01*
X96308199Y-97823173D01*
X96074810Y-97726500D01*
X95822191Y-97726500D01*
X94425191Y-97726500D01*
X94191802Y-97823173D01*
X94013173Y-98001801D01*
X93916500Y-98235190D01*
X93916500Y-98487809D01*
X93916500Y-99884809D01*
X94013173Y-100118198D01*
X94191801Y-100296827D01*
X94223603Y-100310000D01*
X94191802Y-100323173D01*
X94013173Y-100501801D01*
X93916500Y-100735190D01*
X93916500Y-100987809D01*
X93916500Y-102384809D01*
X94013173Y-102618198D01*
X94191801Y-102796827D01*
X94425190Y-102893500D01*
X94677809Y-102893500D01*
X96074809Y-102893500D01*
X96308198Y-102796827D01*
X96486827Y-102618199D01*
X96583500Y-102384810D01*
X96583500Y-105220191D01*
X96486827Y-104986802D01*
X96308199Y-104808173D01*
X96074810Y-104711500D01*
X95822191Y-104711500D01*
X94425191Y-104711500D01*
X94191802Y-104808173D01*
X94013173Y-104986801D01*
X93916500Y-105220190D01*
X93916500Y-105472809D01*
X93916500Y-106869809D01*
X94013173Y-107103198D01*
X94191801Y-107281827D01*
X94223603Y-107295000D01*
X94191802Y-107308173D01*
X94013173Y-107486801D01*
X93916500Y-107720190D01*
X93916500Y-107972809D01*
X93916500Y-109369809D01*
X94013173Y-109603198D01*
X94191801Y-109781827D01*
X94425190Y-109878500D01*
X94677809Y-109878500D01*
X96074809Y-109878500D01*
X96308198Y-109781827D01*
X96486827Y-109603199D01*
X96583500Y-109369810D01*
X96583500Y-112205191D01*
X96486827Y-111971802D01*
X96308199Y-111793173D01*
X96074810Y-111696500D01*
X95822191Y-111696500D01*
X94425191Y-111696500D01*
X94191802Y-111793173D01*
X94013173Y-111971801D01*
X93916500Y-112205190D01*
X93916500Y-112457809D01*
X93916500Y-113854809D01*
X94013173Y-114088198D01*
X94191801Y-114266827D01*
X94223603Y-114280000D01*
X94191802Y-114293173D01*
X94013173Y-114471801D01*
X93916500Y-114705190D01*
X93916500Y-114957809D01*
X93916500Y-116354809D01*
X94013173Y-116588198D01*
X94191801Y-116766827D01*
X94425190Y-116863500D01*
X94677809Y-116863500D01*
X96074809Y-116863500D01*
X96308198Y-116766827D01*
X96486827Y-116588199D01*
X96583500Y-116354810D01*
X96583500Y-119190191D01*
X96486827Y-118956802D01*
X96308199Y-118778173D01*
X96074810Y-118681500D01*
X95822191Y-118681500D01*
X94425191Y-118681500D01*
X94191802Y-118778173D01*
X94013173Y-118956801D01*
X93916500Y-119190190D01*
X93916500Y-119442809D01*
X93916500Y-120839809D01*
X94013173Y-121073198D01*
X94191801Y-121251827D01*
X94223603Y-121265000D01*
X94191802Y-121278173D01*
X94013173Y-121456801D01*
X93916500Y-121690190D01*
X93916500Y-121942809D01*
X93916500Y-123339809D01*
X94013173Y-123573198D01*
X94191801Y-123751827D01*
X94425190Y-123848500D01*
X94677809Y-123848500D01*
X96074809Y-123848500D01*
X96308198Y-123751827D01*
X96486827Y-123573199D01*
X96583500Y-123339810D01*
X96583500Y-125730000D01*
X92583731Y-125730000D01*
X92583731Y-122250914D01*
X92381146Y-121760620D01*
X92006353Y-121385173D01*
X91716837Y-121264955D01*
X92004380Y-121146146D01*
X92379827Y-120771353D01*
X92583268Y-120281413D01*
X92583731Y-119750914D01*
X92583731Y-115265914D01*
X92381146Y-114775620D01*
X92006353Y-114400173D01*
X91716837Y-114279955D01*
X92004380Y-114161146D01*
X92379827Y-113786353D01*
X92583268Y-113296413D01*
X92583731Y-112765914D01*
X92583731Y-108280914D01*
X92381146Y-107790620D01*
X92006353Y-107415173D01*
X91716837Y-107294955D01*
X92004380Y-107176146D01*
X92379827Y-106801353D01*
X92583268Y-106311413D01*
X92583731Y-105780914D01*
X92583731Y-101295914D01*
X92381146Y-100805620D01*
X92006353Y-100430173D01*
X91716837Y-100309955D01*
X92004380Y-100191146D01*
X92379827Y-99816353D01*
X92583268Y-99326413D01*
X92583731Y-98795914D01*
X92583731Y-94310914D01*
X92381146Y-93820620D01*
X92006353Y-93445173D01*
X91716837Y-93324955D01*
X92004380Y-93206146D01*
X92379827Y-92831353D01*
X92583268Y-92341413D01*
X92583731Y-91810914D01*
X92583731Y-87325914D01*
X92381146Y-86835620D01*
X92006353Y-86460173D01*
X91716837Y-86339955D01*
X92004380Y-86221146D01*
X92379827Y-85846353D01*
X92583268Y-85356413D01*
X92583731Y-84825914D01*
X92583731Y-80340914D01*
X92381146Y-79850620D01*
X92006353Y-79475173D01*
X91716837Y-79354955D01*
X92004380Y-79236146D01*
X92379827Y-78861353D01*
X92583268Y-78371413D01*
X92583731Y-77840914D01*
X92583731Y-73355914D01*
X92381146Y-72865620D01*
X92006353Y-72490173D01*
X91716837Y-72369955D01*
X92004380Y-72251146D01*
X92379827Y-71876353D01*
X92583268Y-71386413D01*
X92583731Y-70855914D01*
X92381146Y-70365620D01*
X92006353Y-69990173D01*
X91516413Y-69786732D01*
X90985914Y-69786269D01*
X90495620Y-69988854D01*
X90249900Y-70234145D01*
X90006353Y-69990173D01*
X89516413Y-69786732D01*
X88985914Y-69786269D01*
X88495620Y-69988854D01*
X88136879Y-70346970D01*
X88136879Y-69739206D01*
X88090815Y-69368538D01*
X87356556Y-69180094D01*
X86606075Y-69286983D01*
X86409185Y-69368538D01*
X86363121Y-69739206D01*
X87250000Y-70626086D01*
X88136879Y-69739206D01*
X88136879Y-70346970D01*
X88120173Y-70363647D01*
X87916732Y-70853587D01*
X87916650Y-70947263D01*
X87743914Y-71120000D01*
X87803134Y-71179220D01*
X87309220Y-71673134D01*
X87250000Y-71613914D01*
X87155131Y-71708782D01*
X86756086Y-71765617D01*
X86756086Y-71120000D01*
X85869206Y-70233121D01*
X85498538Y-70279185D01*
X85310094Y-71013444D01*
X85416983Y-71763925D01*
X85498538Y-71960815D01*
X85869206Y-72006879D01*
X86756086Y-71120000D01*
X86756086Y-71765617D01*
X86606075Y-71786983D01*
X86409185Y-71868538D01*
X86363121Y-72239206D01*
X86493914Y-72370000D01*
X86363121Y-72500794D01*
X86409185Y-72871462D01*
X87143444Y-73059906D01*
X87178786Y-73054872D01*
X87250000Y-73126086D01*
X87309220Y-73066865D01*
X87803134Y-73560779D01*
X87743914Y-73620000D01*
X87916348Y-73792434D01*
X87916269Y-73884086D01*
X88118854Y-74374380D01*
X88493647Y-74749827D01*
X88983587Y-74953268D01*
X89514086Y-74953731D01*
X90004380Y-74751146D01*
X90250099Y-74505854D01*
X90493647Y-74749827D01*
X90983587Y-74953268D01*
X91514086Y-74953731D01*
X92004380Y-74751146D01*
X92379827Y-74376353D01*
X92583268Y-73886413D01*
X92583731Y-73355914D01*
X92583731Y-77840914D01*
X92381146Y-77350620D01*
X92006353Y-76975173D01*
X91516413Y-76771732D01*
X90985914Y-76771269D01*
X90495620Y-76973854D01*
X90249900Y-77219145D01*
X90006353Y-76975173D01*
X89516413Y-76771732D01*
X88985914Y-76771269D01*
X88495620Y-76973854D01*
X88136879Y-77331970D01*
X88136879Y-76724206D01*
X88136879Y-75000794D01*
X87250000Y-74113914D01*
X86756086Y-74607828D01*
X86756086Y-73620000D01*
X85869206Y-72733121D01*
X85498538Y-72779185D01*
X85310094Y-73513444D01*
X85416983Y-74263925D01*
X85498538Y-74460815D01*
X85869206Y-74506879D01*
X86756086Y-73620000D01*
X86756086Y-74607828D01*
X86363121Y-75000794D01*
X86409185Y-75371462D01*
X87143444Y-75559906D01*
X87893925Y-75453017D01*
X88090815Y-75371462D01*
X88136879Y-75000794D01*
X88136879Y-76724206D01*
X88090815Y-76353538D01*
X87356556Y-76165094D01*
X86606075Y-76271983D01*
X86409185Y-76353538D01*
X86363121Y-76724206D01*
X87250000Y-77611086D01*
X88136879Y-76724206D01*
X88136879Y-77331970D01*
X88120173Y-77348647D01*
X87916732Y-77838587D01*
X87916650Y-77932263D01*
X87743914Y-78105000D01*
X87803134Y-78164220D01*
X87309220Y-78658134D01*
X87250000Y-78598914D01*
X87155131Y-78693782D01*
X86756086Y-78750617D01*
X86756086Y-78105000D01*
X85869206Y-77218121D01*
X85498538Y-77264185D01*
X85310094Y-77998444D01*
X85416983Y-78748925D01*
X85498538Y-78945815D01*
X85869206Y-78991879D01*
X86756086Y-78105000D01*
X86756086Y-78750617D01*
X86606075Y-78771983D01*
X86409185Y-78853538D01*
X86363121Y-79224206D01*
X86493914Y-79355000D01*
X86363121Y-79485794D01*
X86409185Y-79856462D01*
X87143444Y-80044906D01*
X87178786Y-80039872D01*
X87250000Y-80111086D01*
X87309220Y-80051865D01*
X87803134Y-80545779D01*
X87743914Y-80605000D01*
X87916348Y-80777434D01*
X87916269Y-80869086D01*
X88118854Y-81359380D01*
X88493647Y-81734827D01*
X88983587Y-81938268D01*
X89514086Y-81938731D01*
X90004380Y-81736146D01*
X90250099Y-81490854D01*
X90493647Y-81734827D01*
X90983587Y-81938268D01*
X91514086Y-81938731D01*
X92004380Y-81736146D01*
X92379827Y-81361353D01*
X92583268Y-80871413D01*
X92583731Y-80340914D01*
X92583731Y-84825914D01*
X92381146Y-84335620D01*
X92006353Y-83960173D01*
X91516413Y-83756732D01*
X90985914Y-83756269D01*
X90495620Y-83958854D01*
X90249900Y-84204145D01*
X90006353Y-83960173D01*
X89516413Y-83756732D01*
X88985914Y-83756269D01*
X88495620Y-83958854D01*
X88136879Y-84316970D01*
X88136879Y-83709206D01*
X88136879Y-81985794D01*
X87250000Y-81098914D01*
X86756086Y-81592828D01*
X86756086Y-80605000D01*
X85869206Y-79718121D01*
X85498538Y-79764185D01*
X85310094Y-80498444D01*
X85416983Y-81248925D01*
X85498538Y-81445815D01*
X85869206Y-81491879D01*
X86756086Y-80605000D01*
X86756086Y-81592828D01*
X86363121Y-81985794D01*
X86409185Y-82356462D01*
X87143444Y-82544906D01*
X87893925Y-82438017D01*
X88090815Y-82356462D01*
X88136879Y-81985794D01*
X88136879Y-83709206D01*
X88090815Y-83338538D01*
X87356556Y-83150094D01*
X86606075Y-83256983D01*
X86409185Y-83338538D01*
X86363121Y-83709206D01*
X87250000Y-84596086D01*
X88136879Y-83709206D01*
X88136879Y-84316970D01*
X88120173Y-84333647D01*
X87916732Y-84823587D01*
X87916650Y-84917263D01*
X87743914Y-85090000D01*
X87803134Y-85149220D01*
X87309220Y-85643134D01*
X87250000Y-85583914D01*
X87155131Y-85678782D01*
X86756086Y-85735617D01*
X86756086Y-85090000D01*
X85869206Y-84203121D01*
X85498538Y-84249185D01*
X85310094Y-84983444D01*
X85416983Y-85733925D01*
X85498538Y-85930815D01*
X85869206Y-85976879D01*
X86756086Y-85090000D01*
X86756086Y-85735617D01*
X86606075Y-85756983D01*
X86409185Y-85838538D01*
X86363121Y-86209206D01*
X86493914Y-86340000D01*
X86363121Y-86470794D01*
X86409185Y-86841462D01*
X87143444Y-87029906D01*
X87178786Y-87024872D01*
X87250000Y-87096086D01*
X87309220Y-87036865D01*
X87803134Y-87530779D01*
X87743914Y-87590000D01*
X87916348Y-87762434D01*
X87916269Y-87854086D01*
X88118854Y-88344380D01*
X88493647Y-88719827D01*
X88983587Y-88923268D01*
X89514086Y-88923731D01*
X90004380Y-88721146D01*
X90250099Y-88475854D01*
X90493647Y-88719827D01*
X90983587Y-88923268D01*
X91514086Y-88923731D01*
X92004380Y-88721146D01*
X92379827Y-88346353D01*
X92583268Y-87856413D01*
X92583731Y-87325914D01*
X92583731Y-91810914D01*
X92381146Y-91320620D01*
X92006353Y-90945173D01*
X91516413Y-90741732D01*
X90985914Y-90741269D01*
X90495620Y-90943854D01*
X90249900Y-91189145D01*
X90006353Y-90945173D01*
X89516413Y-90741732D01*
X88985914Y-90741269D01*
X88495620Y-90943854D01*
X88136879Y-91301970D01*
X88136879Y-90694206D01*
X88136879Y-88970794D01*
X87250000Y-88083914D01*
X86756086Y-88577828D01*
X86756086Y-87590000D01*
X85869206Y-86703121D01*
X85498538Y-86749185D01*
X85310094Y-87483444D01*
X85416983Y-88233925D01*
X85498538Y-88430815D01*
X85869206Y-88476879D01*
X86756086Y-87590000D01*
X86756086Y-88577828D01*
X86363121Y-88970794D01*
X86409185Y-89341462D01*
X87143444Y-89529906D01*
X87893925Y-89423017D01*
X88090815Y-89341462D01*
X88136879Y-88970794D01*
X88136879Y-90694206D01*
X88090815Y-90323538D01*
X87356556Y-90135094D01*
X86606075Y-90241983D01*
X86409185Y-90323538D01*
X86363121Y-90694206D01*
X87250000Y-91581086D01*
X88136879Y-90694206D01*
X88136879Y-91301970D01*
X88120173Y-91318647D01*
X87916732Y-91808587D01*
X87916650Y-91902263D01*
X87743914Y-92075000D01*
X87803134Y-92134220D01*
X87309220Y-92628134D01*
X87250000Y-92568914D01*
X87155131Y-92663782D01*
X86756086Y-92720617D01*
X86756086Y-92075000D01*
X85869206Y-91188121D01*
X85498538Y-91234185D01*
X85310094Y-91968444D01*
X85416983Y-92718925D01*
X85498538Y-92915815D01*
X85869206Y-92961879D01*
X86756086Y-92075000D01*
X86756086Y-92720617D01*
X86606075Y-92741983D01*
X86409185Y-92823538D01*
X86363121Y-93194206D01*
X86493914Y-93325000D01*
X86363121Y-93455794D01*
X86409185Y-93826462D01*
X87143444Y-94014906D01*
X87178786Y-94009872D01*
X87250000Y-94081086D01*
X87309220Y-94021865D01*
X87803134Y-94515779D01*
X87743914Y-94575000D01*
X87916348Y-94747434D01*
X87916269Y-94839086D01*
X88118854Y-95329380D01*
X88493647Y-95704827D01*
X88983587Y-95908268D01*
X89514086Y-95908731D01*
X90004380Y-95706146D01*
X90250099Y-95460854D01*
X90493647Y-95704827D01*
X90983587Y-95908268D01*
X91514086Y-95908731D01*
X92004380Y-95706146D01*
X92379827Y-95331353D01*
X92583268Y-94841413D01*
X92583731Y-94310914D01*
X92583731Y-98795914D01*
X92381146Y-98305620D01*
X92006353Y-97930173D01*
X91516413Y-97726732D01*
X90985914Y-97726269D01*
X90495620Y-97928854D01*
X90249900Y-98174145D01*
X90006353Y-97930173D01*
X89516413Y-97726732D01*
X88985914Y-97726269D01*
X88495620Y-97928854D01*
X88136879Y-98286970D01*
X88136879Y-97679206D01*
X88136879Y-95955794D01*
X87250000Y-95068914D01*
X86756086Y-95562828D01*
X86756086Y-94575000D01*
X85869206Y-93688121D01*
X85498538Y-93734185D01*
X85310094Y-94468444D01*
X85416983Y-95218925D01*
X85498538Y-95415815D01*
X85869206Y-95461879D01*
X86756086Y-94575000D01*
X86756086Y-95562828D01*
X86363121Y-95955794D01*
X86409185Y-96326462D01*
X87143444Y-96514906D01*
X87893925Y-96408017D01*
X88090815Y-96326462D01*
X88136879Y-95955794D01*
X88136879Y-97679206D01*
X88090815Y-97308538D01*
X87356556Y-97120094D01*
X86606075Y-97226983D01*
X86409185Y-97308538D01*
X86363121Y-97679206D01*
X87250000Y-98566086D01*
X88136879Y-97679206D01*
X88136879Y-98286970D01*
X88120173Y-98303647D01*
X87916732Y-98793587D01*
X87916650Y-98887263D01*
X87743914Y-99060000D01*
X87803134Y-99119220D01*
X87309220Y-99613134D01*
X87250000Y-99553914D01*
X87155131Y-99648782D01*
X86756086Y-99705617D01*
X86756086Y-99060000D01*
X85869206Y-98173121D01*
X85498538Y-98219185D01*
X85310094Y-98953444D01*
X85416983Y-99703925D01*
X85498538Y-99900815D01*
X85869206Y-99946879D01*
X86756086Y-99060000D01*
X86756086Y-99705617D01*
X86606075Y-99726983D01*
X86409185Y-99808538D01*
X86363121Y-100179206D01*
X86493914Y-100310000D01*
X86363121Y-100440794D01*
X86409185Y-100811462D01*
X87143444Y-100999906D01*
X87178786Y-100994872D01*
X87250000Y-101066086D01*
X87309220Y-101006865D01*
X87803134Y-101500779D01*
X87743914Y-101560000D01*
X87916348Y-101732434D01*
X87916269Y-101824086D01*
X88118854Y-102314380D01*
X88493647Y-102689827D01*
X88983587Y-102893268D01*
X89514086Y-102893731D01*
X90004380Y-102691146D01*
X90250099Y-102445854D01*
X90493647Y-102689827D01*
X90983587Y-102893268D01*
X91514086Y-102893731D01*
X92004380Y-102691146D01*
X92379827Y-102316353D01*
X92583268Y-101826413D01*
X92583731Y-101295914D01*
X92583731Y-105780914D01*
X92381146Y-105290620D01*
X92006353Y-104915173D01*
X91516413Y-104711732D01*
X90985914Y-104711269D01*
X90495620Y-104913854D01*
X90249900Y-105159145D01*
X90006353Y-104915173D01*
X89516413Y-104711732D01*
X88985914Y-104711269D01*
X88495620Y-104913854D01*
X88136879Y-105271970D01*
X88136879Y-104664206D01*
X88136879Y-102940794D01*
X87250000Y-102053914D01*
X86756086Y-102547828D01*
X86756086Y-101560000D01*
X85869206Y-100673121D01*
X85498538Y-100719185D01*
X85310094Y-101453444D01*
X85416983Y-102203925D01*
X85498538Y-102400815D01*
X85869206Y-102446879D01*
X86756086Y-101560000D01*
X86756086Y-102547828D01*
X86363121Y-102940794D01*
X86409185Y-103311462D01*
X87143444Y-103499906D01*
X87893925Y-103393017D01*
X88090815Y-103311462D01*
X88136879Y-102940794D01*
X88136879Y-104664206D01*
X88090815Y-104293538D01*
X87356556Y-104105094D01*
X86606075Y-104211983D01*
X86409185Y-104293538D01*
X86363121Y-104664206D01*
X87250000Y-105551086D01*
X88136879Y-104664206D01*
X88136879Y-105271970D01*
X88120173Y-105288647D01*
X87916732Y-105778587D01*
X87916650Y-105872263D01*
X87743914Y-106045000D01*
X87803134Y-106104220D01*
X87309220Y-106598134D01*
X87250000Y-106538914D01*
X87155131Y-106633782D01*
X86756086Y-106690617D01*
X86756086Y-106045000D01*
X85869206Y-105158121D01*
X85498538Y-105204185D01*
X85310094Y-105938444D01*
X85416983Y-106688925D01*
X85498538Y-106885815D01*
X85869206Y-106931879D01*
X86756086Y-106045000D01*
X86756086Y-106690617D01*
X86606075Y-106711983D01*
X86409185Y-106793538D01*
X86363121Y-107164206D01*
X86493914Y-107295000D01*
X86363121Y-107425794D01*
X86409185Y-107796462D01*
X87143444Y-107984906D01*
X87178786Y-107979872D01*
X87250000Y-108051086D01*
X87309220Y-107991865D01*
X87803134Y-108485779D01*
X87743914Y-108545000D01*
X87916348Y-108717434D01*
X87916269Y-108809086D01*
X88118854Y-109299380D01*
X88493647Y-109674827D01*
X88983587Y-109878268D01*
X89514086Y-109878731D01*
X90004380Y-109676146D01*
X90250099Y-109430854D01*
X90493647Y-109674827D01*
X90983587Y-109878268D01*
X91514086Y-109878731D01*
X92004380Y-109676146D01*
X92379827Y-109301353D01*
X92583268Y-108811413D01*
X92583731Y-108280914D01*
X92583731Y-112765914D01*
X92381146Y-112275620D01*
X92006353Y-111900173D01*
X91516413Y-111696732D01*
X90985914Y-111696269D01*
X90495620Y-111898854D01*
X90249900Y-112144145D01*
X90006353Y-111900173D01*
X89516413Y-111696732D01*
X88985914Y-111696269D01*
X88495620Y-111898854D01*
X88136879Y-112256970D01*
X88136879Y-111649206D01*
X88136879Y-109925794D01*
X87250000Y-109038914D01*
X86756086Y-109532828D01*
X86756086Y-108545000D01*
X85869206Y-107658121D01*
X85498538Y-107704185D01*
X85310094Y-108438444D01*
X85416983Y-109188925D01*
X85498538Y-109385815D01*
X85869206Y-109431879D01*
X86756086Y-108545000D01*
X86756086Y-109532828D01*
X86363121Y-109925794D01*
X86409185Y-110296462D01*
X87143444Y-110484906D01*
X87893925Y-110378017D01*
X88090815Y-110296462D01*
X88136879Y-109925794D01*
X88136879Y-111649206D01*
X88090815Y-111278538D01*
X87356556Y-111090094D01*
X86606075Y-111196983D01*
X86409185Y-111278538D01*
X86363121Y-111649206D01*
X87250000Y-112536086D01*
X88136879Y-111649206D01*
X88136879Y-112256970D01*
X88120173Y-112273647D01*
X87916732Y-112763587D01*
X87916650Y-112857263D01*
X87743914Y-113030000D01*
X87803134Y-113089220D01*
X87309220Y-113583134D01*
X87250000Y-113523914D01*
X87155131Y-113618782D01*
X86756086Y-113675617D01*
X86756086Y-113030000D01*
X85869206Y-112143121D01*
X85498538Y-112189185D01*
X85310094Y-112923444D01*
X85416983Y-113673925D01*
X85498538Y-113870815D01*
X85869206Y-113916879D01*
X86756086Y-113030000D01*
X86756086Y-113675617D01*
X86606075Y-113696983D01*
X86409185Y-113778538D01*
X86363121Y-114149206D01*
X86493914Y-114280000D01*
X86363121Y-114410794D01*
X86409185Y-114781462D01*
X87143444Y-114969906D01*
X87178786Y-114964872D01*
X87250000Y-115036086D01*
X87309220Y-114976865D01*
X87803134Y-115470779D01*
X87743914Y-115530000D01*
X87916348Y-115702434D01*
X87916269Y-115794086D01*
X88118854Y-116284380D01*
X88493647Y-116659827D01*
X88983587Y-116863268D01*
X89514086Y-116863731D01*
X90004380Y-116661146D01*
X90250099Y-116415854D01*
X90493647Y-116659827D01*
X90983587Y-116863268D01*
X91514086Y-116863731D01*
X92004380Y-116661146D01*
X92379827Y-116286353D01*
X92583268Y-115796413D01*
X92583731Y-115265914D01*
X92583731Y-119750914D01*
X92381146Y-119260620D01*
X92006353Y-118885173D01*
X91516413Y-118681732D01*
X90985914Y-118681269D01*
X90495620Y-118883854D01*
X90249900Y-119129145D01*
X90006353Y-118885173D01*
X89516413Y-118681732D01*
X88985914Y-118681269D01*
X88495620Y-118883854D01*
X88136879Y-119241970D01*
X88136879Y-118634206D01*
X88136879Y-116910794D01*
X87250000Y-116023914D01*
X86756086Y-116517828D01*
X86756086Y-115530000D01*
X85869206Y-114643121D01*
X85498538Y-114689185D01*
X85310094Y-115423444D01*
X85416983Y-116173925D01*
X85498538Y-116370815D01*
X85869206Y-116416879D01*
X86756086Y-115530000D01*
X86756086Y-116517828D01*
X86363121Y-116910794D01*
X86409185Y-117281462D01*
X87143444Y-117469906D01*
X87893925Y-117363017D01*
X88090815Y-117281462D01*
X88136879Y-116910794D01*
X88136879Y-118634206D01*
X88090815Y-118263538D01*
X87356556Y-118075094D01*
X86606075Y-118181983D01*
X86409185Y-118263538D01*
X86363121Y-118634206D01*
X87250000Y-119521086D01*
X88136879Y-118634206D01*
X88136879Y-119241970D01*
X88120173Y-119258647D01*
X87916732Y-119748587D01*
X87916650Y-119842263D01*
X87743914Y-120015000D01*
X87803134Y-120074220D01*
X87309220Y-120568134D01*
X87250000Y-120508914D01*
X87155131Y-120603782D01*
X86756086Y-120660617D01*
X86756086Y-120015000D01*
X85869206Y-119128121D01*
X85498538Y-119174185D01*
X85310094Y-119908444D01*
X85416983Y-120658925D01*
X85498538Y-120855815D01*
X85869206Y-120901879D01*
X86756086Y-120015000D01*
X86756086Y-120660617D01*
X86606075Y-120681983D01*
X86409185Y-120763538D01*
X86363121Y-121134206D01*
X86493914Y-121265000D01*
X86363121Y-121395794D01*
X86409185Y-121766462D01*
X87143444Y-121954906D01*
X87178786Y-121949872D01*
X87250000Y-122021086D01*
X87309220Y-121961865D01*
X87803134Y-122455779D01*
X87743914Y-122515000D01*
X87916348Y-122687434D01*
X87916269Y-122779086D01*
X88118854Y-123269380D01*
X88493647Y-123644827D01*
X88983587Y-123848268D01*
X89514086Y-123848731D01*
X90004380Y-123646146D01*
X90250099Y-123400854D01*
X90493647Y-123644827D01*
X90983587Y-123848268D01*
X91514086Y-123848731D01*
X92004380Y-123646146D01*
X92379827Y-123271353D01*
X92583268Y-122781413D01*
X92583731Y-122250914D01*
X92583731Y-125730000D01*
X88250651Y-125730000D01*
X88136879Y-125752630D01*
X88136879Y-123895794D01*
X87250000Y-123008914D01*
X86756086Y-123502828D01*
X86756086Y-122515000D01*
X85869206Y-121628121D01*
X85498538Y-121674185D01*
X85310094Y-122408444D01*
X85416983Y-123158925D01*
X85498538Y-123355815D01*
X85869206Y-123401879D01*
X86756086Y-122515000D01*
X86756086Y-123502828D01*
X86363121Y-123895794D01*
X86409185Y-124266462D01*
X87143444Y-124454906D01*
X87893925Y-124348017D01*
X88090815Y-124266462D01*
X88136879Y-123895794D01*
X88136879Y-125752630D01*
X87886145Y-125802505D01*
X87577132Y-126008981D01*
X87548237Y-126052224D01*
X82613623Y-130986838D01*
X82613731Y-130863414D01*
X82613500Y-130862854D01*
X82613500Y-122109810D01*
X82613500Y-121857191D01*
X82613500Y-120460191D01*
X82613500Y-115124810D01*
X82613500Y-114872191D01*
X82613500Y-113475191D01*
X82613500Y-108139810D01*
X82613500Y-107887191D01*
X82613500Y-106490191D01*
X82613500Y-101154810D01*
X82613500Y-100902191D01*
X82613500Y-99505191D01*
X82613500Y-94169810D01*
X82613500Y-93917191D01*
X82613500Y-92520191D01*
X82613500Y-87184810D01*
X82613500Y-86932191D01*
X82613500Y-85535191D01*
X82613500Y-80199810D01*
X82613500Y-79947191D01*
X82613500Y-78550191D01*
X82613500Y-73214810D01*
X82613500Y-72962191D01*
X82613500Y-71565191D01*
X82516827Y-71331802D01*
X82338199Y-71153173D01*
X82104810Y-71056500D01*
X81852191Y-71056500D01*
X80455191Y-71056500D01*
X80221802Y-71153173D01*
X80043173Y-71331801D01*
X79946500Y-71565190D01*
X79946500Y-71817809D01*
X79946500Y-71817990D01*
X79871146Y-71635620D01*
X79496353Y-71260173D01*
X79006413Y-71056732D01*
X78475914Y-71056269D01*
X77985620Y-71258854D01*
X77610173Y-71633647D01*
X77406732Y-72123587D01*
X77406269Y-72654086D01*
X77608854Y-73144380D01*
X77983647Y-73519827D01*
X78473587Y-73723268D01*
X79004086Y-73723731D01*
X79494380Y-73521146D01*
X79869827Y-73146353D01*
X79946500Y-72961704D01*
X79946500Y-73214809D01*
X80043173Y-73448198D01*
X80221801Y-73626827D01*
X80455190Y-73723500D01*
X80707809Y-73723500D01*
X82104809Y-73723500D01*
X82338198Y-73626827D01*
X82516827Y-73448199D01*
X82613500Y-73214810D01*
X82613500Y-78550191D01*
X82516827Y-78316802D01*
X82338199Y-78138173D01*
X82104810Y-78041500D01*
X81852191Y-78041500D01*
X80455191Y-78041500D01*
X80221802Y-78138173D01*
X80043173Y-78316801D01*
X79946500Y-78550190D01*
X79946500Y-78802809D01*
X79946500Y-78802990D01*
X79871146Y-78620620D01*
X79496353Y-78245173D01*
X79006413Y-78041732D01*
X78475914Y-78041269D01*
X77985620Y-78243854D01*
X77610173Y-78618647D01*
X77406732Y-79108587D01*
X77406269Y-79639086D01*
X77608854Y-80129380D01*
X77983647Y-80504827D01*
X78473587Y-80708268D01*
X79004086Y-80708731D01*
X79494380Y-80506146D01*
X79869827Y-80131353D01*
X79946500Y-79946704D01*
X79946500Y-80199809D01*
X80043173Y-80433198D01*
X80221801Y-80611827D01*
X80455190Y-80708500D01*
X80707809Y-80708500D01*
X82104809Y-80708500D01*
X82338198Y-80611827D01*
X82516827Y-80433199D01*
X82613500Y-80199810D01*
X82613500Y-85535191D01*
X82516827Y-85301802D01*
X82338199Y-85123173D01*
X82104810Y-85026500D01*
X81852191Y-85026500D01*
X80455191Y-85026500D01*
X80221802Y-85123173D01*
X80043173Y-85301801D01*
X79946500Y-85535190D01*
X79946500Y-85787809D01*
X79946500Y-85787990D01*
X79871146Y-85605620D01*
X79496353Y-85230173D01*
X79006413Y-85026732D01*
X78475914Y-85026269D01*
X77985620Y-85228854D01*
X77610173Y-85603647D01*
X77406732Y-86093587D01*
X77406269Y-86624086D01*
X77608854Y-87114380D01*
X77983647Y-87489827D01*
X78473587Y-87693268D01*
X79004086Y-87693731D01*
X79494380Y-87491146D01*
X79869827Y-87116353D01*
X79946500Y-86931704D01*
X79946500Y-87184809D01*
X80043173Y-87418198D01*
X80221801Y-87596827D01*
X80455190Y-87693500D01*
X80707809Y-87693500D01*
X82104809Y-87693500D01*
X82338198Y-87596827D01*
X82516827Y-87418199D01*
X82613500Y-87184810D01*
X82613500Y-92520191D01*
X82516827Y-92286802D01*
X82338199Y-92108173D01*
X82104810Y-92011500D01*
X81852191Y-92011500D01*
X80455191Y-92011500D01*
X80221802Y-92108173D01*
X80043173Y-92286801D01*
X79946500Y-92520190D01*
X79946500Y-92772809D01*
X79946500Y-92772990D01*
X79871146Y-92590620D01*
X79496353Y-92215173D01*
X79006413Y-92011732D01*
X78475914Y-92011269D01*
X77985620Y-92213854D01*
X77610173Y-92588647D01*
X77406732Y-93078587D01*
X77406269Y-93609086D01*
X77608854Y-94099380D01*
X77983647Y-94474827D01*
X78473587Y-94678268D01*
X79004086Y-94678731D01*
X79494380Y-94476146D01*
X79869827Y-94101353D01*
X79946500Y-93916704D01*
X79946500Y-94169809D01*
X80043173Y-94403198D01*
X80221801Y-94581827D01*
X80455190Y-94678500D01*
X80707809Y-94678500D01*
X82104809Y-94678500D01*
X82338198Y-94581827D01*
X82516827Y-94403199D01*
X82613500Y-94169810D01*
X82613500Y-99505191D01*
X82516827Y-99271802D01*
X82338199Y-99093173D01*
X82104810Y-98996500D01*
X81852191Y-98996500D01*
X80455191Y-98996500D01*
X80221802Y-99093173D01*
X80043173Y-99271801D01*
X79946500Y-99505190D01*
X79946500Y-99757809D01*
X79946500Y-99757990D01*
X79871146Y-99575620D01*
X79496353Y-99200173D01*
X79006413Y-98996732D01*
X78475914Y-98996269D01*
X77985620Y-99198854D01*
X77610173Y-99573647D01*
X77406732Y-100063587D01*
X77406269Y-100594086D01*
X77608854Y-101084380D01*
X77983647Y-101459827D01*
X78473587Y-101663268D01*
X79004086Y-101663731D01*
X79494380Y-101461146D01*
X79869827Y-101086353D01*
X79946500Y-100901704D01*
X79946500Y-101154809D01*
X80043173Y-101388198D01*
X80221801Y-101566827D01*
X80455190Y-101663500D01*
X80707809Y-101663500D01*
X82104809Y-101663500D01*
X82338198Y-101566827D01*
X82516827Y-101388199D01*
X82613500Y-101154810D01*
X82613500Y-106490191D01*
X82516827Y-106256802D01*
X82338199Y-106078173D01*
X82104810Y-105981500D01*
X81852191Y-105981500D01*
X80455191Y-105981500D01*
X80221802Y-106078173D01*
X80043173Y-106256801D01*
X79946500Y-106490190D01*
X79946500Y-106742809D01*
X79946500Y-106742990D01*
X79871146Y-106560620D01*
X79496353Y-106185173D01*
X79006413Y-105981732D01*
X78475914Y-105981269D01*
X77985620Y-106183854D01*
X77610173Y-106558647D01*
X77406732Y-107048587D01*
X77406269Y-107579086D01*
X77608854Y-108069380D01*
X77983647Y-108444827D01*
X78473587Y-108648268D01*
X79004086Y-108648731D01*
X79494380Y-108446146D01*
X79869827Y-108071353D01*
X79946500Y-107886704D01*
X79946500Y-108139809D01*
X80043173Y-108373198D01*
X80221801Y-108551827D01*
X80455190Y-108648500D01*
X80707809Y-108648500D01*
X82104809Y-108648500D01*
X82338198Y-108551827D01*
X82516827Y-108373199D01*
X82613500Y-108139810D01*
X82613500Y-113475191D01*
X82516827Y-113241802D01*
X82338199Y-113063173D01*
X82104810Y-112966500D01*
X81852191Y-112966500D01*
X80455191Y-112966500D01*
X80221802Y-113063173D01*
X80043173Y-113241801D01*
X79946500Y-113475190D01*
X79946500Y-113727809D01*
X79946500Y-113727990D01*
X79871146Y-113545620D01*
X79496353Y-113170173D01*
X79006413Y-112966732D01*
X78475914Y-112966269D01*
X77985620Y-113168854D01*
X77610173Y-113543647D01*
X77406732Y-114033587D01*
X77406269Y-114564086D01*
X77608854Y-115054380D01*
X77983647Y-115429827D01*
X78473587Y-115633268D01*
X79004086Y-115633731D01*
X79494380Y-115431146D01*
X79869827Y-115056353D01*
X79946500Y-114871704D01*
X79946500Y-115124809D01*
X80043173Y-115358198D01*
X80221801Y-115536827D01*
X80455190Y-115633500D01*
X80707809Y-115633500D01*
X82104809Y-115633500D01*
X82338198Y-115536827D01*
X82516827Y-115358199D01*
X82613500Y-115124810D01*
X82613500Y-120460191D01*
X82516827Y-120226802D01*
X82338199Y-120048173D01*
X82104810Y-119951500D01*
X81852191Y-119951500D01*
X80455191Y-119951500D01*
X80221802Y-120048173D01*
X80043173Y-120226801D01*
X79946500Y-120460190D01*
X79946500Y-120712809D01*
X79946500Y-120712990D01*
X79871146Y-120530620D01*
X79496353Y-120155173D01*
X79006413Y-119951732D01*
X78475914Y-119951269D01*
X77985620Y-120153854D01*
X77610173Y-120528647D01*
X77406732Y-121018587D01*
X77406269Y-121549086D01*
X77608854Y-122039380D01*
X77983647Y-122414827D01*
X78473587Y-122618268D01*
X79004086Y-122618731D01*
X79494380Y-122416146D01*
X79869827Y-122041353D01*
X79946500Y-121856704D01*
X79946500Y-122109809D01*
X80043173Y-122343198D01*
X80221801Y-122521827D01*
X80455190Y-122618500D01*
X80707809Y-122618500D01*
X82104809Y-122618500D01*
X82338198Y-122521827D01*
X82516827Y-122343199D01*
X82613500Y-122109810D01*
X82613500Y-130862854D01*
X82411146Y-130373120D01*
X82036353Y-129997673D01*
X81546413Y-129794232D01*
X81015914Y-129793769D01*
X80525620Y-129996354D01*
X80150173Y-130371147D01*
X79946732Y-130861087D01*
X79946269Y-131391586D01*
X80148854Y-131881880D01*
X80523647Y-132257327D01*
X80861446Y-132397593D01*
X80559876Y-132522199D01*
X80461745Y-132285289D01*
X80122210Y-131945755D01*
X79678587Y-131762000D01*
X79391000Y-131762000D01*
X79089250Y-132063750D01*
X79089250Y-133318250D01*
X79173000Y-133318250D01*
X79173000Y-134016750D01*
X79089250Y-134016750D01*
X79089250Y-135271250D01*
X79391000Y-135573000D01*
X79678587Y-135573000D01*
X80122210Y-135389245D01*
X80461745Y-135049711D01*
X80560028Y-134812433D01*
X81013587Y-135000768D01*
X81544086Y-135001231D01*
X81741698Y-134919579D01*
X81597000Y-135268913D01*
X81597000Y-135556500D01*
X81898750Y-135858250D01*
X83153250Y-135858250D01*
X83153250Y-135774500D01*
X83851750Y-135774500D01*
X83851750Y-135858250D01*
X83935500Y-135858250D01*
X83935500Y-136556750D01*
X83851750Y-136556750D01*
X83851750Y-137811250D01*
X84153500Y-138113000D01*
X84441087Y-138113000D01*
X84884710Y-137929245D01*
X85224245Y-137589711D01*
X85322528Y-137352433D01*
X85776087Y-137540768D01*
X86306586Y-137541231D01*
X86796880Y-137338646D01*
X87172327Y-136963853D01*
X87375768Y-136473913D01*
X87376231Y-135943414D01*
X87173646Y-135453120D01*
X86798853Y-135077673D01*
X86461053Y-134937406D01*
X86796880Y-134798646D01*
X87172327Y-134423853D01*
X87375768Y-133933913D01*
X87376231Y-133403414D01*
X87173646Y-132913120D01*
X86798853Y-132537673D01*
X86308913Y-132334232D01*
X85778414Y-132333769D01*
X85386216Y-132495821D01*
X88977038Y-128905000D01*
X89217500Y-128905000D01*
X96442961Y-128905000D01*
X94361123Y-130986838D01*
X94361231Y-130863414D01*
X94158646Y-130373120D01*
X93783853Y-129997673D01*
X93293913Y-129794232D01*
X92763414Y-129793769D01*
X92273120Y-129996354D01*
X91897673Y-130371147D01*
X91694232Y-130861087D01*
X91693769Y-131391586D01*
X91896354Y-131881880D01*
X92271147Y-132257327D01*
X92608946Y-132397593D01*
X92307376Y-132522199D01*
X92209245Y-132285289D01*
X91869710Y-131945755D01*
X91426087Y-131762000D01*
X91138500Y-131762000D01*
X90836750Y-132063750D01*
X90836750Y-133318250D01*
X90920500Y-133318250D01*
X90920500Y-134016750D01*
X90836750Y-134016750D01*
X90836750Y-135271250D01*
X91138500Y-135573000D01*
X91426087Y-135573000D01*
X91869710Y-135389245D01*
X92209245Y-135049711D01*
X92307528Y-134812433D01*
X92761087Y-135000768D01*
X93291586Y-135001231D01*
X93489198Y-134919579D01*
X93344500Y-135268913D01*
X93344500Y-135556500D01*
X93646250Y-135858250D01*
X94900750Y-135858250D01*
X94900750Y-135774500D01*
X95599250Y-135774500D01*
X95599250Y-135858250D01*
X95683000Y-135858250D01*
X95683000Y-136556750D01*
X95599250Y-136556750D01*
X95599250Y-137811250D01*
X95901000Y-138113000D01*
X96188587Y-138113000D01*
X96632210Y-137929245D01*
X96971745Y-137589711D01*
X97070028Y-137352433D01*
X97523587Y-137540768D01*
X98054086Y-137541231D01*
X98544380Y-137338646D01*
X98919827Y-136963853D01*
X99123268Y-136473913D01*
X99123731Y-135943414D01*
X98921146Y-135453120D01*
X98546353Y-135077673D01*
X98208553Y-134937406D01*
X98544380Y-134798646D01*
X98919827Y-134423853D01*
X99123268Y-133933913D01*
X99123731Y-133403414D01*
X98921146Y-132913120D01*
X98546353Y-132537673D01*
X98056413Y-132334232D01*
X97930416Y-132334122D01*
X98819538Y-131445000D01*
X100012500Y-131445000D01*
X100377006Y-131372495D01*
X100686019Y-131166019D01*
X103899538Y-127952500D01*
X106045000Y-127952500D01*
X106409506Y-127879995D01*
X106718519Y-127673519D01*
X109220000Y-125172038D01*
X109220000Y-125335462D01*
X105371482Y-129183980D01*
X105165006Y-129492993D01*
X105100227Y-129818654D01*
X105041413Y-129794232D01*
X104510914Y-129793769D01*
X104020620Y-129996354D01*
X103645173Y-130371147D01*
X103441732Y-130861087D01*
X103441269Y-131391586D01*
X103643854Y-131881880D01*
X104018647Y-132257327D01*
X104356446Y-132397593D01*
X104054876Y-132522199D01*
X103956745Y-132285289D01*
X103617210Y-131945755D01*
X103173587Y-131762000D01*
X102886000Y-131762000D01*
X102584250Y-132063750D01*
X102584250Y-133318250D01*
X102668000Y-133318250D01*
X102668000Y-134016750D01*
X102584250Y-134016750D01*
X102584250Y-135271250D01*
X102886000Y-135573000D01*
X103173587Y-135573000D01*
X103617210Y-135389245D01*
X103956745Y-135049711D01*
X104055028Y-134812433D01*
X104508587Y-135000768D01*
X105039086Y-135001231D01*
X105236698Y-134919579D01*
X105092000Y-135268913D01*
X105092000Y-135556500D01*
X105393750Y-135858250D01*
X106648250Y-135858250D01*
X106648250Y-135774500D01*
X107346750Y-135774500D01*
X107346750Y-135858250D01*
X107430500Y-135858250D01*
X107430500Y-136556750D01*
X107346750Y-136556750D01*
X107346750Y-137811250D01*
X107648500Y-138113000D01*
X107936087Y-138113000D01*
X108379710Y-137929245D01*
X108719245Y-137589711D01*
X108817528Y-137352433D01*
X109271087Y-137540768D01*
X109801586Y-137541231D01*
X110291880Y-137338646D01*
X110667327Y-136963853D01*
X110870768Y-136473913D01*
X110871231Y-135943414D01*
X110668646Y-135453120D01*
X110293853Y-135077673D01*
X109956053Y-134937406D01*
X110291880Y-134798646D01*
X110667327Y-134423853D01*
X110870768Y-133933913D01*
X110871231Y-133403414D01*
X110668646Y-132913120D01*
X110293853Y-132537673D01*
X109803913Y-132334232D01*
X109273414Y-132333769D01*
X108902500Y-132487027D01*
X108902500Y-131204538D01*
X111760000Y-128347038D01*
X111760000Y-128905000D01*
X111760000Y-129857500D01*
X111832505Y-130222006D01*
X112038981Y-130531019D01*
X113269962Y-131762000D01*
X113043913Y-131762000D01*
X112600290Y-131945755D01*
X112260755Y-132285289D01*
X112077000Y-132728913D01*
X112077000Y-133016500D01*
X112378750Y-133318250D01*
X113633250Y-133318250D01*
X113633250Y-133234500D01*
X114331750Y-133234500D01*
X114331750Y-133318250D01*
X114415500Y-133318250D01*
X114415500Y-134016750D01*
X114331750Y-134016750D01*
X114331750Y-135271250D01*
X114633500Y-135573000D01*
X114921087Y-135573000D01*
X115364710Y-135389245D01*
X115704245Y-135049711D01*
X115802528Y-134812433D01*
X116256087Y-135000768D01*
X116786586Y-135001231D01*
X116984198Y-134919579D01*
X116839500Y-135268913D01*
X116839500Y-135556500D01*
X117141250Y-135858250D01*
X118395750Y-135858250D01*
X118395750Y-135774500D01*
X119094250Y-135774500D01*
X119094250Y-135858250D01*
X119178000Y-135858250D01*
X119178000Y-136556750D01*
X119094250Y-136556750D01*
X119094250Y-137811250D01*
X119396000Y-138113000D01*
X119683587Y-138113000D01*
X120127210Y-137929245D01*
X120466745Y-137589711D01*
X120565028Y-137352433D01*
X121018587Y-137540768D01*
X121549086Y-137541231D01*
X122039380Y-137338646D01*
X122414827Y-136963853D01*
X122618268Y-136473913D01*
X122618731Y-135943414D01*
X122618731Y-159310000D01*
X120870519Y-159310000D01*
X120870519Y-148284727D01*
X120807488Y-145784397D01*
X119971917Y-143767148D01*
X119155456Y-143175614D01*
X118571386Y-143759684D01*
X118571386Y-142591544D01*
X118395750Y-142349123D01*
X118395750Y-137811250D01*
X118395750Y-136556750D01*
X117141250Y-136556750D01*
X116839500Y-136858500D01*
X116839500Y-137146087D01*
X117023255Y-137589711D01*
X117362790Y-137929245D01*
X117806413Y-138113000D01*
X118094000Y-138113000D01*
X118395750Y-137811250D01*
X118395750Y-142349123D01*
X117979852Y-141775083D01*
X115645727Y-140876481D01*
X113633250Y-140927213D01*
X113633250Y-135271250D01*
X113633250Y-134016750D01*
X112378750Y-134016750D01*
X112077000Y-134318500D01*
X112077000Y-134606087D01*
X112260755Y-135049711D01*
X112600290Y-135389245D01*
X113043913Y-135573000D01*
X113331500Y-135573000D01*
X113633250Y-135271250D01*
X113633250Y-140927213D01*
X113145397Y-140939512D01*
X111128148Y-141775083D01*
X110536614Y-142591544D01*
X114554000Y-146608930D01*
X118571386Y-142591544D01*
X118571386Y-143759684D01*
X115138070Y-147193000D01*
X119155456Y-151210386D01*
X119971917Y-150618852D01*
X120870519Y-148284727D01*
X120870519Y-159310000D01*
X118571386Y-159310000D01*
X118571386Y-151794456D01*
X114554000Y-147777070D01*
X113969930Y-148361140D01*
X113969930Y-147193000D01*
X109952544Y-143175614D01*
X109136083Y-143767148D01*
X108237481Y-146101273D01*
X108300512Y-148601603D01*
X109136083Y-150618852D01*
X109952544Y-151210386D01*
X113969930Y-147193000D01*
X113969930Y-148361140D01*
X110536614Y-151794456D01*
X111128148Y-152610917D01*
X113462273Y-153509519D01*
X115962603Y-153446488D01*
X117979852Y-152610917D01*
X118571386Y-151794456D01*
X118571386Y-159310000D01*
X106648250Y-159310000D01*
X106648250Y-137811250D01*
X106648250Y-136556750D01*
X105393750Y-136556750D01*
X105092000Y-136858500D01*
X105092000Y-137146087D01*
X105275755Y-137589711D01*
X105615290Y-137929245D01*
X106058913Y-138113000D01*
X106346500Y-138113000D01*
X106648250Y-137811250D01*
X106648250Y-159310000D01*
X103296908Y-159310000D01*
X103296908Y-155144310D01*
X103132138Y-154745537D01*
X102827307Y-154440174D01*
X102428823Y-154274709D01*
X101997350Y-154274332D01*
X101885750Y-154320444D01*
X101885750Y-135271250D01*
X101885750Y-134016750D01*
X101885750Y-133318250D01*
X101885750Y-132063750D01*
X101584000Y-131762000D01*
X101296413Y-131762000D01*
X100852790Y-131945755D01*
X100513255Y-132285289D01*
X100329500Y-132728913D01*
X100329500Y-133016500D01*
X100631250Y-133318250D01*
X101885750Y-133318250D01*
X101885750Y-134016750D01*
X100631250Y-134016750D01*
X100329500Y-134318500D01*
X100329500Y-134606087D01*
X100513255Y-135049711D01*
X100852790Y-135389245D01*
X101296413Y-135573000D01*
X101584000Y-135573000D01*
X101885750Y-135271250D01*
X101885750Y-154320444D01*
X101598577Y-154439102D01*
X101293214Y-154743933D01*
X101127749Y-155142417D01*
X101127372Y-155573890D01*
X101292142Y-155972663D01*
X101596973Y-156278026D01*
X101995457Y-156443491D01*
X102426930Y-156443868D01*
X102825703Y-156279098D01*
X103131066Y-155974267D01*
X103296531Y-155575783D01*
X103296908Y-155144310D01*
X103296908Y-159310000D01*
X98897628Y-159310000D01*
X98897628Y-155144310D01*
X98732858Y-154745537D01*
X98428027Y-154440174D01*
X98029543Y-154274709D01*
X97598070Y-154274332D01*
X97199297Y-154439102D01*
X96893934Y-154743933D01*
X96728469Y-155142417D01*
X96728092Y-155573890D01*
X96892862Y-155972663D01*
X97197693Y-156278026D01*
X97596177Y-156443491D01*
X98027650Y-156443868D01*
X98426423Y-156279098D01*
X98731786Y-155974267D01*
X98897251Y-155575783D01*
X98897628Y-155144310D01*
X98897628Y-159310000D01*
X94900750Y-159310000D01*
X94900750Y-137811250D01*
X94900750Y-136556750D01*
X93646250Y-136556750D01*
X93344500Y-136858500D01*
X93344500Y-137146087D01*
X93528255Y-137589711D01*
X93867790Y-137929245D01*
X94311413Y-138113000D01*
X94599000Y-138113000D01*
X94900750Y-137811250D01*
X94900750Y-159310000D01*
X93062406Y-159310000D01*
X93062406Y-157904056D01*
X92955517Y-157153575D01*
X92873962Y-156956685D01*
X92503294Y-156910621D01*
X92009379Y-157404535D01*
X92009379Y-156416706D01*
X91963315Y-156046038D01*
X91229056Y-155857594D01*
X90478575Y-155964483D01*
X90297989Y-156039284D01*
X90297989Y-146061204D01*
X90138250Y-145674605D01*
X90138250Y-135271250D01*
X90138250Y-134016750D01*
X90138250Y-133318250D01*
X90138250Y-132063750D01*
X89836500Y-131762000D01*
X89548913Y-131762000D01*
X89105290Y-131945755D01*
X88765755Y-132285289D01*
X88582000Y-132728913D01*
X88582000Y-133016500D01*
X88883750Y-133318250D01*
X90138250Y-133318250D01*
X90138250Y-134016750D01*
X88883750Y-134016750D01*
X88582000Y-134318500D01*
X88582000Y-134606087D01*
X88765755Y-135049711D01*
X89105290Y-135389245D01*
X89548913Y-135573000D01*
X89836500Y-135573000D01*
X90138250Y-135271250D01*
X90138250Y-145674605D01*
X89429766Y-143959942D01*
X87823514Y-142350884D01*
X85723771Y-141478995D01*
X83450204Y-141477011D01*
X83153250Y-141599709D01*
X83153250Y-137811250D01*
X83153250Y-136556750D01*
X81898750Y-136556750D01*
X81597000Y-136858500D01*
X81597000Y-137146087D01*
X81780755Y-137589711D01*
X82120290Y-137929245D01*
X82563913Y-138113000D01*
X82851500Y-138113000D01*
X83153250Y-137811250D01*
X83153250Y-141599709D01*
X81348942Y-142345234D01*
X79739884Y-143951486D01*
X78867995Y-146051229D01*
X78866011Y-148324796D01*
X79734234Y-150426058D01*
X81340486Y-152035116D01*
X83440229Y-152907005D01*
X85713796Y-152908989D01*
X87815058Y-152040766D01*
X89424116Y-150434514D01*
X90296005Y-148334771D01*
X90297989Y-146061204D01*
X90297989Y-156039284D01*
X90281685Y-156046038D01*
X90235621Y-156416706D01*
X91122500Y-157303586D01*
X92009379Y-156416706D01*
X92009379Y-157404535D01*
X91616414Y-157797500D01*
X92503294Y-158684379D01*
X92873962Y-158638315D01*
X93062406Y-157904056D01*
X93062406Y-159310000D01*
X91993011Y-159310000D01*
X92009379Y-159178294D01*
X91122500Y-158291414D01*
X90628586Y-158785328D01*
X90628586Y-157797500D01*
X89741706Y-156910621D01*
X89371038Y-156956685D01*
X89182594Y-157690944D01*
X89289483Y-158441425D01*
X89371038Y-158638315D01*
X89741706Y-158684379D01*
X90628586Y-157797500D01*
X90628586Y-158785328D01*
X90235621Y-159178294D01*
X90251988Y-159310000D01*
X84836000Y-159310000D01*
X84836000Y-158622310D01*
X84836000Y-158369691D01*
X84836000Y-156972691D01*
X84739327Y-156739302D01*
X84560699Y-156560673D01*
X84327310Y-156464000D01*
X84074691Y-156464000D01*
X82677691Y-156464000D01*
X82444302Y-156560673D01*
X82265673Y-156739301D01*
X82169000Y-156972690D01*
X82169000Y-157225309D01*
X82169000Y-158622309D01*
X82265673Y-158855698D01*
X82444301Y-159034327D01*
X82677690Y-159131000D01*
X82930309Y-159131000D01*
X84327309Y-159131000D01*
X84560698Y-159034327D01*
X84739327Y-158855699D01*
X84836000Y-158622310D01*
X84836000Y-159310000D01*
X78390750Y-159310000D01*
X78390750Y-135271250D01*
X78390750Y-134016750D01*
X78390750Y-133318250D01*
X78390750Y-132063750D01*
X78089000Y-131762000D01*
X77801413Y-131762000D01*
X77357790Y-131945755D01*
X77018255Y-132285289D01*
X76834500Y-132728913D01*
X76834500Y-133016500D01*
X77136250Y-133318250D01*
X78390750Y-133318250D01*
X78390750Y-134016750D01*
X77136250Y-134016750D01*
X76834500Y-134318500D01*
X76834500Y-134606087D01*
X77018255Y-135049711D01*
X77357790Y-135389245D01*
X77801413Y-135573000D01*
X78089000Y-135573000D01*
X78390750Y-135271250D01*
X78390750Y-159310000D01*
X75640000Y-159310000D01*
X75640000Y-61035000D01*
X123750000Y-61035000D01*
X123750000Y-159310000D01*
M02*
